<?xml version="1.0" standalone="no"?>
<!DOCTYPE svg PUBLIC "-//W3C//DTD SVG 1.1//EN" "http://www.w3.org/Graphics/SVG/1.1/DTD/svg11.dtd" >
<svg xmlns="http://www.w3.org/2000/svg">
<metadata></metadata>
<defs>
<font id="enter_sansmanbold" horiz-adv-x="1420" >
<font-face units-per-em="2048" ascent="1638" descent="-410" />
<missing-glyph horiz-adv-x="1024" />
<glyph horiz-adv-x="2048" />
<glyph horiz-adv-x="2048" />
<glyph unicode="&#xd;" horiz-adv-x="2048" />
<glyph unicode=" "  horiz-adv-x="1024" />
<glyph unicode="&#x09;" horiz-adv-x="1024" />
<glyph unicode="&#xa0;" horiz-adv-x="1024" />
<glyph unicode="!" horiz-adv-x="630" d="M112 0v378h488v-378h-488zM114 832v602h486v-576l-44 -396h-394z" />
<glyph unicode="&#x22;" horiz-adv-x="682" d="M62 1058v376h228v-358l-20 -248h-186zM420 1058v376h230v-358l-22 -248h-186z" />
<glyph unicode="#" horiz-adv-x="1434" d="M228 408v180h288l36 254h-264v186h288l50 406h180l-58 -410h186l60 406h170l-46 -406h248v-182h-276l-36 -248h260v-186h-276l-54 -408h-182l54 408h-176l-60 -410h-176l56 410h-272zM702 592h182l30 252h-182z" />
<glyph unicode="$" horiz-adv-x="1474" d="M84 738v342q0 24 4 47t12 45q16 42 46 74q28 30 70 48q20 10 42 14t48 4h362v208h162v-208h522v-202h-522v-144h328q20 0 41 -3t43 -9q22 -8 42 -18t38 -22q16 -14 32 -31t26 -37q12 -20 18 -43t6 -51v-368q0 -22 -5 -43t-13 -41t-20 -38t-26 -34t-30 -29t-34 -23 q-24 -14 -48 -21t-48 -7h-354v-216h-158v220h-546v202h546v160h-322q-32 0 -61 5t-53 13q-24 10 -45 22t-37 28t-28 34t-20 38t-13 41t-5 43zM488 996q0 -6 4 -11t8 -9t10 -7t12 -3h146v140h-146q-6 0 -12 -3t-10 -9q-6 -4 -9 -11t-3 -13v-74zM830 354h132q6 0 13 3t13 7 l8 12t4 12v92q0 6 -3 11t-7 9q-6 6 -16 10t-18 4h-126v-160z" />
<glyph unicode="%" horiz-adv-x="2080" d="M76 882v348q0 20 2 40t8 40q4 20 12 39t20 33t25 25t31 17q14 6 29 9t33 3h430q18 0 35 -4t31 -10t27 -16t23 -22q12 -16 20 -34t14 -36q4 -18 6 -37t2 -37v-364q0 -42 -8 -74q-6 -22 -15 -39t-19 -31q-22 -26 -50 -40t-62 -14h-436q-18 0 -35 4t-33 12q-16 10 -30 22 t-26 28q-8 14 -15 31t-13 37q-2 16 -4 33t-2 37zM336 848q0 -8 5 -16t11 -14q8 -6 16 -10t16 -4h134q6 0 14 3t12 7q6 6 10 12t4 12v436q0 6 -4 13t-10 11q-4 6 -12 9t-14 3h-140q-8 0 -15 -4t-13 -12q-6 -6 -10 -13t-4 -15v-418zM510 -2l746 1436h294l-748 -1436h-292z M1234 188v348q0 20 2 41t6 41q6 20 14 38t20 34q10 12 24 23t32 19q12 4 28 7t34 3h428q20 0 36 -3t30 -9q16 -8 29 -18t23 -22q12 -14 20 -32t12 -36q6 -20 8 -39t2 -37v-364q0 -40 -10 -74q-4 -20 -13 -38t-21 -32q-20 -26 -50 -38q-28 -12 -60 -12h-436q-18 0 -36 4 t-34 10q-16 8 -30 20t-24 30q-10 14 -17 31t-11 35q-4 16 -5 34t-1 36zM1494 154q0 -8 4 -16t12 -14q6 -6 14 -10t16 -4h136q6 0 13 3t13 9q6 4 10 11t4 13v436q0 6 -4 12t-10 12q-6 4 -13 7t-13 3h-140q-8 0 -15 -4t-13 -10t-10 -14t-4 -16v-418z" />
<glyph unicode="&#x26;" horiz-adv-x="1708" d="M96 266v344q0 34 8 67t24 61q12 22 28 41t36 33q24 16 54 25t64 7l108 2l-132 192q-14 22 -19 45t-7 46t-1 46t1 41q2 36 13 68t29 56q18 22 41 40t53 30q28 12 61 18t71 6h326q26 0 52 -1t52 -3q34 -4 64 -11t56 -19t48 -29t36 -39q10 -18 16 -39t6 -49q0 -24 -5 -56 t-15 -68q-6 -32 -17 -65t-25 -67q-12 -32 -28 -63t-32 -59q-20 -30 -41 -54t-43 -38l-186 186q22 22 37 49t23 57q6 30 4 60t-16 54t-37 37t-47 15q-14 0 -29 -3t-29 -9t-26 -16t-18 -24q-2 -6 -7 -16t-8 -24t-2 -34t9 -46q8 -22 29 -50t57 -62l434 -406l184 206l180 -182 l-164 -200l100 -92l162 4v-282h-358l-124 112q-8 -8 -15 -16t-15 -14t-15 -13t-17 -15q-26 -22 -56 -36t-66 -14h-584q-26 0 -54 8t-56 22q-22 10 -42 24t-38 30q-20 20 -37 42t-29 44q-12 24 -19 48t-7 48zM476 407q4 -39 40 -81q8 -10 22 -21t32 -22t37 -20t33 -13 q10 -2 28 -1t41 4t49 8t52 15q30 8 56 20t46 28l-308 286q-16 -12 -32 -25t-30 -27q-18 -18 -32 -37t-24 -41q-14 -34 -10 -73z" />
<glyph unicode="'" horiz-adv-x="304" d="M62 1058v376h228v-358l-20 -248h-186z" />
<glyph unicode="(" horiz-adv-x="840" d="M144 68v1056q0 26 7 54t21 54q12 28 29 53t39 49q22 22 46 41t50 31q26 14 53 22t55 8h356v-216h-190q-16 0 -32 -9t-28 -23q-14 -14 -22 -31t-8 -33v-1040q0 -16 9 -33t23 -31t31 -22t33 -8h184v-216h-322q-36 0 -73 11t-71 29q-28 14 -54 33t-48 41q-20 20 -36 42 t-28 44q-10 24 -17 47t-7 47z" />
<glyph unicode=")" horiz-adv-x="840" d="M144 -10h184q18 0 35 8t31 22q12 14 21 31t9 33v1040q0 16 -8 33t-20 31q-14 14 -30 23t-32 9h-190v216h356q28 0 55 -8t53 -22q26 -12 51 -31t45 -41q22 -24 40 -49t30 -53q12 -26 19 -54t7 -54v-1056q0 -24 -6 -47t-18 -47q-12 -22 -28 -44t-36 -42q-22 -22 -48 -41 t-52 -33q-36 -18 -73 -29t-73 -11h-322v216z" />
<glyph unicode="*" horiz-adv-x="1172" d="M254 1126l102 174l230 -130v266h202v-266l230 132l100 -176l-226 -132l226 -132l-102 -176l-228 130v-262h-206v264l-226 -132l-100 178l228 132z" />
<glyph unicode="+" horiz-adv-x="1194" d="M82 428v210h424v422h208v-422h424v-210h-424v-422h-208v422h-424z" />
<glyph unicode="," horiz-adv-x="666" d="M150 0v374h486v-374l-244 -308h-208l144 308h-178z" />
<glyph unicode="-" horiz-adv-x="1194" d="M82 428v210h267h261h261h267v-210h-528h-528z" />
<glyph unicode="." horiz-adv-x="676" d="M158 0v376h486v-376h-486z" />
<glyph unicode="/" horiz-adv-x="680" d="M-86 0l514 1436h220l-514 -1436h-220z" />
<glyph unicode="0" horiz-adv-x="1602" d="M104 386v658q0 38 5 77t15 77q8 38 24 73t38 63q20 26 46 47t60 33q24 10 54 16t64 6h814q36 0 67 -7t57 -17q30 -14 54 -33t42 -43q24 -28 39 -62t25 -68q10 -36 14 -72t4 -70v-692q0 -38 -4 -73t-14 -67q-10 -38 -27 -72t-37 -60q-20 -24 -44 -43t-50 -31 q-28 -14 -57 -20t-59 -6h-828q-34 0 -68 7t-64 23t-56 39t-48 55q-16 26 -30 58t-22 70q-6 30 -10 63t-4 71zM600 320q0 -16 9 -31t21 -25q12 -12 28 -20t32 -8h256q12 0 25 6t25 16q10 8 17 20t7 24v828q0 12 -7 24t-17 20q-12 10 -25 16t-25 6h-266q-14 0 -29 -8t-25 -20 q-12 -12 -19 -26t-7 -30v-792z" />
<glyph unicode="1" horiz-adv-x="1122" d="M390 998v254l562 184h118v-1432h-496v994h-184z" />
<glyph unicode="2" horiz-adv-x="1548" d="M118 0v678q0 26 2 53t8 53q4 22 12 41t18 37q12 16 29 30t39 24q16 8 37 13t45 7l618 32q10 0 20 5t20 13q8 8 13 18t5 20v142q0 8 -5 14t-15 10q-8 4 -18 6t-18 2h-780v238h1034q28 0 57 -5t59 -15q28 -10 54 -25t48 -37q20 -18 35 -42t25 -52q8 -24 12 -50t4 -54v-382 q0 -22 -3 -43t-9 -39t-15 -35t-19 -31q-12 -16 -26 -30t-32 -24q-20 -12 -43 -20t-45 -8l-572 -30q-20 -2 -38 -5t-30 -11t-20 -21t-8 -35v-206h828v-236h-1326z" />
<glyph unicode="3" horiz-adv-x="1518" d="M184 1198v236h978q26 0 54 -3t54 -9q28 -6 54 -17t48 -27q16 -14 30 -31t24 -39t15 -49t5 -61v-300q0 -36 -14 -63t-40 -47q-20 -16 -47 -29t-57 -25q36 -8 66 -25t50 -41t31 -56t11 -70v-322q0 -24 -4 -46t-12 -42t-19 -37t-25 -31q-16 -16 -34 -28t-38 -20 q-18 -8 -39 -12t-41 -4h-1048v238h712q10 0 19 5t15 13q8 8 12 18t4 18v272q0 10 -5 18t-13 12q-8 6 -17 10t-19 4h-498v236h494q10 0 19 3t17 9t14 14t6 16v266q0 8 -6 17t-14 15t-17 10t-19 4h-706z" />
<glyph unicode="4" horiz-adv-x="1696" d="M20 322v352l788 756h582v-736h226v-372h-230v-322h-484v322h-882zM390 702h508v472z" />
<glyph unicode="5" horiz-adv-x="1576" d="M158 676l10 758h1316v-236h-832l-14 -282h586q56 0 104 -16q30 -10 55 -26t45 -38q18 -18 32 -40t22 -46q10 -26 15 -53t5 -57v-376q0 -32 -5 -58t-15 -50q-10 -30 -28 -53t-38 -41q-20 -14 -42 -26t-46 -18q-24 -8 -50 -12t-52 -4h-1042v232h772q12 0 21 9t15 23t8 29 t2 27v282q0 18 -5 32t-13 22q-8 10 -19 14t-23 4h-784z" />
<glyph unicode="6" horiz-adv-x="1572" d="M114 278v870q0 26 7 53t19 53t29 50t37 46q20 20 43 37t47 29q20 8 39 13t39 5h1058v-236h-728q-14 0 -29 -4t-27 -14t-20 -23t-8 -31v-200h592q26 0 52 -6t52 -18t51 -28t45 -36q20 -16 36 -36t26 -40q12 -22 18 -44t6 -44v-406q0 -22 -6 -43t-14 -41q-10 -20 -24 -40 t-30 -38q-18 -20 -40 -37t-44 -29q-30 -18 -62 -28t-62 -10h-802q-30 0 -62 8t-62 22q-24 12 -46 26t-40 32q-20 18 -37 39t-27 45q-12 24 -19 50t-7 54zM616 292q0 -10 7 -20t19 -18q10 -8 23 -12t23 -4h250q10 0 22 5t20 13q10 6 16 16t6 20v348q0 10 -5 19t-13 17 q-8 6 -19 11t-19 5h-278q-10 0 -19 -6t-17 -14q-6 -8 -11 -18t-5 -20v-342z" />
<glyph unicode="7" horiz-adv-x="1532" d="M154 1192v242h1288l18 -242q-42 -48 -82 -96q-24 -30 -48 -62l-48 -64q-28 -38 -54 -78t-50 -78q-30 -48 -57 -95t-51 -95q-40 -76 -74 -154q-18 -44 -36 -89t-34 -89q-14 -40 -27 -82t-23 -84q-10 -32 -17 -64t-13 -62h-572q10 32 22 66t24 70q34 88 74 178q18 42 39 84 t43 84q16 32 34 64l36 64q22 42 47 82t51 80q24 40 50 79t52 77q28 40 57 78t57 76l44 56t44 54h-794z" />
<glyph unicode="8" horiz-adv-x="1580" d="M108 242v286q0 26 8 51t22 47q10 18 25 34t31 30q16 12 34 23t36 19q40 16 84 20q-28 4 -52 12t-44 16t-38 18t-32 22q-36 28 -54 62q-16 36 -16 80v222q0 24 5 48t15 44q8 24 21 44t29 38q16 16 34 31t38 25t41 15t43 5h908q28 0 58 -6t56 -20q22 -10 42 -23t36 -31 q16 -16 28 -34t22 -38q8 -22 13 -45t5 -49v-230q0 -18 -4 -37t-12 -37q-8 -16 -19 -33t-25 -31t-32 -26t-36 -22q-14 -8 -31 -14t-33 -10q16 -4 32 -9t30 -11q16 -8 31 -17t27 -21q16 -14 30 -32t22 -38q10 -20 15 -40t5 -42v-284q0 -28 -6 -54t-16 -50q-10 -22 -24 -42 t-32 -36q-14 -16 -33 -28t-37 -22q-26 -12 -52 -17t-52 -5h-894q-26 0 -52 7t-52 19q-18 10 -36 23t-34 27q-16 18 -31 38t-25 40q-10 22 -16 44t-6 44zM612 944q0 -18 4 -31t10 -23q8 -12 23 -18t33 -6h258q14 0 26 5t20 15q10 10 16 24t6 32v174q0 12 -4 26t-12 26t-21 21 t-31 9h-258q-18 0 -30 -8t-22 -20q-8 -12 -13 -27t-5 -29v-170zM614 314q0 -14 3 -27t9 -25q8 -12 21 -19t33 -7h262q14 0 25 5t19 13q12 12 17 27t5 31v240q0 16 -4 29t-10 23q-10 12 -23 18t-29 6h-264q-16 0 -28 -9t-20 -21t-12 -27t-4 -27v-230z" />
<glyph unicode="9" horiz-adv-x="1576" d="M124 754v420q0 24 7 47t17 45q12 22 27 43t35 41q18 18 39 34t43 26q22 12 46 18t46 6h830q26 0 55 -7t57 -21q20 -10 41 -23t39 -29q22 -18 39 -39t31 -43q12 -22 19 -46t7 -48v-924q0 -24 -7 -49t-21 -49q-10 -18 -24 -35t-30 -33q-20 -18 -42 -34t-46 -28 q-26 -12 -54 -19t-54 -7h-1040v234h738q12 0 26 6t26 16t20 23t8 25v204h-592q-30 0 -64 10t-64 26q-20 10 -38 23t-34 27q-18 16 -34 36t-28 40q-10 20 -17 41t-7 43zM622 794q0 -10 6 -20t16 -18q8 -8 20 -13t22 -5h252q10 0 21 5t21 13t16 18t6 20v350q0 10 -6 20t-16 18 q-8 6 -18 11t-20 5h-270q-8 0 -17 -5t-17 -15q-6 -8 -11 -18t-5 -18v-348z" />
<glyph unicode=":" horiz-adv-x="666" d="M150 0v374h486v-374h-486zM150 652v374h486v-374h-486z" />
<glyph unicode=";" horiz-adv-x="666" d="M150 0v374h486v-374l-244 -308h-208l144 308h-178zM150 652v374h486v-374h-486z" />
<glyph unicode="&#x3c;" horiz-adv-x="1156" d="M112 528l538 538h448v-222h-354l-320 -320l314 -314h364v-220h-452z" />
<glyph unicode="=" horiz-adv-x="1194" d="M82 190v208h267h261h261h267v-208h-528h-528zM82 660v210h267h261h261h267v-210h-528h-528z" />
<glyph unicode="&#x3e;" horiz-adv-x="1156" d="M112 -10v220h362l314 314l-320 320h-354v222h450l538 -538l-540 -538h-450z" />
<glyph unicode="?" horiz-adv-x="1414" d="M70 1230v206h1012q24 0 47 -6t47 -16q22 -10 44 -25t42 -33q18 -18 34 -38t28 -42t18 -45t6 -45v-274q0 -20 -4 -41t-14 -41q-8 -22 -21 -42t-27 -38q-16 -18 -33 -32t-35 -26q-20 -10 -40 -16t-40 -6h-210q-14 0 -31 -6t-31 -14q-14 -10 -24 -22t-10 -28v-130h-502v210 q0 20 4 40t12 40t19 39t25 35q14 18 30 32t32 26q18 10 37 15t37 5h250q12 0 26 6t26 14t20 19t8 25v198q0 12 -9 23t-21 17q-14 8 -28 12t-28 4h-696zM326 0v374h486v-374h-486z" />
<glyph unicode="@" horiz-adv-x="1658" d="M128 776q0 70 14 140t42 138t68 131t92 119q48 52 106 95t125 74t142 48t157 17q60 0 122 -13t122 -36t116 -58t106 -79q54 -46 98 -104t76 -126t49 -144t17 -162q0 -64 -14 -116t-38 -94t-58 -73t-74 -53t-85 -37t-91 -24t-92 -13t-88 -4h-218h-228q-26 0 -53 16t-47 40 t-33 53t-13 57v332q0 32 13 64t35 60t50 45t58 17h230h220q36 0 73 -17t67 -45q32 -28 51 -63t19 -71v-250q0 -12 4 -23t11 -18t15 -8t16 5q24 16 42 48t30 69t18 78t6 77q0 46 -11 92t-30 90t-46 84t-61 76q-40 40 -87 73t-100 58t-111 39t-120 16q-50 0 -97 -8t-88 -25 t-78 -42t-69 -55q-54 -52 -95 -116t-68 -135t-40 -144t-13 -139q0 -126 40 -232t114 -184t181 -123t241 -47q30 0 59 1t58 6t56 17t53 34h142q-10 -30 -26 -54t-38 -43t-48 -35t-54 -28t-57 -20t-58 -12t-57 -6t-52 -2q-66 4 -132 16t-129 35t-121 57t-110 80 q-50 46 -92 105t-72 132t-46 159t-16 188zM766 576q0 -8 4 -15t12 -12t16 -9t16 -4h88q8 0 16 4t14 10t10 14t4 14v332q0 8 -4 16t-11 14t-15 10t-16 4h-84q-8 0 -17 -4t-16 -11t-12 -15t-5 -16v-332z" />
<glyph unicode="A" horiz-adv-x="1760" d="M-4 0l636 1430h502l544 -1430h-536l-148 380h-582l-174 -380h-242zM518 620h394l-194 488z" />
<glyph unicode="B" horiz-adv-x="1564" d="M112 2v1430h1076q30 0 59 -3t53 -11q32 -8 58 -21t46 -31q22 -18 37 -39t25 -43q12 -24 17 -49t5 -49v-262q0 -28 -7 -50t-19 -40t-28 -31t-36 -23q-14 -8 -32 -13t-36 -9q-30 -6 -59 -8t-53 -2q30 -4 58 -10t54 -14q42 -10 72 -28q16 -6 29 -16t23 -20q18 -18 27 -41 t9 -49v-324q0 -36 -7 -66t-21 -54q-14 -22 -32 -41t-40 -33q-20 -12 -41 -21t-45 -15q-28 -8 -57 -11t-55 -3h-1080zM614 236h324q12 0 21 7t17 17q8 12 12 25t4 25v260q0 10 -6 20t-14 16q-10 8 -20 13t-20 5h-318v-388zM614 858h318q10 0 21 6t19 14q8 10 14 21t6 21v222 q0 10 -6 20t-14 16q-10 8 -20 13t-20 5h-318v-338z" />
<glyph unicode="C" horiz-adv-x="1290" d="M88 344v740q0 36 5 68t13 62q12 34 27 64t33 54q18 22 37 40t41 30q28 18 59 27t65 9h842v-236h-548q-12 0 -25 -7t-23 -17q-12 -12 -18 -25t-6 -25v-820q0 -12 7 -25t19 -23t26 -16t28 -6h560v-238h-844q-34 0 -67 7t-63 21q-28 14 -52 33t-44 45q-16 22 -31 50t-23 60 q-8 28 -13 60t-5 68z" />
<glyph unicode="D" horiz-adv-x="1538" d="M104 2v1432h1036q30 0 59 -4t57 -12q36 -10 69 -30t59 -48q20 -22 37 -52t27 -66q8 -28 13 -61t5 -69v-744q0 -38 -4 -71t-12 -61q-10 -36 -25 -65t-35 -51q-20 -24 -44 -41t-52 -29q-36 -16 -74 -22t-76 -6h-1040zM610 234h292q12 0 23 8t19 20q8 10 13 24t5 26v830 q0 10 -6 20t-16 18q-8 8 -20 13t-22 5h-288v-964z" />
<glyph unicode="E" horiz-adv-x="1284" d="M104 2v1432h1106v-232h-600v-344h584v-234h-584v-390h614v-232h-1120z" />
<glyph unicode="F" horiz-adv-x="1270" d="M104 0v1434h1106v-232h-604v-340h588v-240h-592v-622h-498z" />
<glyph unicode="G" horiz-adv-x="1528" d="M88 354v714q0 38 5 74t15 68q8 32 22 61t30 51q18 28 41 48t49 36q26 14 55 21t59 7h1026v-232h-718q-14 0 -29 -6t-27 -16q-14 -10 -22 -22t-8 -26v-818q0 -14 7 -28t19 -26q12 -10 26 -18t28 -8h208q14 0 28 7t24 17q12 10 19 24t7 26v316h-266v230h770v-852h-1070 q-40 0 -73 8t-61 22q-32 16 -57 39t-43 49q-16 24 -27 49t-19 51q-8 34 -13 68t-5 66z" />
<glyph unicode="H" horiz-adv-x="1560" d="M108 2v1432h502v-572h378v572h498v-1432h-498v622h-378v-622h-502z" />
<glyph unicode="I" horiz-adv-x="678" d="M142 0v1430l504 4v-1434h-504z" />
<glyph unicode="J" horiz-adv-x="1154" d="M22 2v236h468q32 0 53 11t33 27t16 36t4 40v1082h504v-1096q0 -36 -5 -71t-15 -67q-10 -30 -27 -56t-39 -48q-20 -20 -46 -37t-58 -29q-36 -14 -82 -21t-102 -7h-704z" />
<glyph unicode="K" horiz-adv-x="1696" d="M104 2v1432h502v-642l512 642h318l-378 -420l558 -1014h-592l-298 608l-120 -150v-456h-502z" />
<glyph unicode="L" horiz-adv-x="1284" d="M124 2v1432h506v-1200h594v-232h-1100z" />
<glyph unicode="M" horiz-adv-x="2002" d="M112 2v1432h644l252 -816l272 816h628v-1434h-496v1144l-374 -1142h-346l-362 1130v-1130h-218z" />
<glyph unicode="N" horiz-adv-x="1606" d="M108 4v1432h654l544 -1172v1172h224v-1432h-654l-552 1194v-1194h-216z" />
<glyph unicode="O" horiz-adv-x="1586" d="M92 358v708q0 44 5 82t13 70q10 36 25 66t33 52q20 24 44 42t50 30q34 14 72 21t76 7h782q36 0 71 -6t65 -20q32 -12 60 -33t50 -53q20 -28 36 -65t26 -83q6 -32 9 -69t3 -79v-616q0 -46 -4 -86t-12 -76q-8 -42 -24 -79t-36 -65q-34 -44 -78 -70q-30 -16 -64 -24t-74 -8 h-840q-34 0 -63 7t-55 19q-32 16 -58 40t-46 54q-16 26 -29 55t-21 61q-8 30 -12 60t-4 58zM590 310q0 -14 8 -27t18 -23q12 -10 26 -17t28 -7h268q14 0 27 8t23 20q10 10 16 24t6 28v806q0 14 -6 28t-18 24q-10 10 -24 17t-26 7h-256q-20 0 -35 -7t-27 -17q-14 -14 -21 -33 t-7 -37v-794z" />
<glyph unicode="P" horiz-adv-x="1538" d="M112 4v1428h1060q28 0 58 -4t58 -12q28 -10 55 -25t49 -35q16 -18 30 -39t24 -47t15 -57t5 -67v-356q0 -34 -5 -64t-15 -54q-8 -24 -22 -45t-30 -37q-18 -18 -39 -31t-45 -23q-30 -12 -62 -17t-64 -5h-574v-510h-498zM610 750h296q12 0 23 8t19 20t12 26t4 26v296 q0 16 -5 29t-13 21q-8 10 -19 15t-21 5h-296v-446z" />
<glyph unicode="Q" horiz-adv-x="1584" d="M88 350v730q0 28 4 58t12 60q8 28 21 57t29 55q16 24 36 45t44 37q32 20 69 32t83 12h830q44 0 81 -11t65 -29q30 -20 53 -46t39 -56q14 -24 23 -49t17 -51q8 -34 12 -68t4 -66v-680q0 -34 -5 -71t-15 -73q-8 -28 -19 -55t-23 -51q-16 -28 -36 -51t-46 -41 q-24 -16 -52 -26t-62 -10h-138l96 -184h-202l-96 184h-522q-40 0 -73 8t-61 22t-51 33t-39 41q-18 24 -32 50t-22 52q-12 36 -18 72t-6 70zM592 314q0 -14 7 -27t19 -25q10 -10 24 -17t28 -7h120l-104 208h192l100 -192q10 6 18 18q4 6 6 13t2 13v832q0 12 -7 24t-17 20 t-23 14t-25 6h-264q-14 0 -28 -7t-24 -19q-12 -12 -18 -26t-6 -28v-800z" />
<glyph unicode="R" horiz-adv-x="1642" d="M108 2v1430h1078q78 0 136 -20q56 -20 94 -62q18 -20 31 -47t21 -59q12 -50 12 -114v-294q0 -22 -1 -43t-5 -43q-4 -20 -13 -40t-23 -36q-10 -12 -25 -22t-35 -16q-20 -8 -44 -11t-56 -3l286 -620h-556l-238 618h-160v-618h-502zM614 858h314q16 0 25 5t15 15q6 8 8 20 t2 30v218q0 14 -4 24t-12 16t-19 8t-21 2h-308v-338z" />
<glyph unicode="S" d="M92 702v448q0 24 4 50t12 52t21 50t29 46q14 18 32 34t40 28q22 10 47 16t53 6h968v-236h-670q-10 0 -19 -4t-17 -10t-13 -14t-5 -18v-106q0 -8 3 -15t9 -15q8 -10 20 -18t24 -8h440q26 0 55 -4t55 -12q28 -8 53 -22t47 -32q16 -16 30 -34t24 -40t15 -48t5 -58v-438 q0 -22 -2 -44t-6 -42q-6 -30 -17 -56t-25 -48q-30 -46 -78 -74q-30 -18 -66 -27t-76 -9h-950v238h668q12 0 24 4t22 10t17 15t7 21v126q0 10 -6 20t-16 16q-8 8 -19 12t-21 4h-484q-28 0 -53 5t-45 11q-22 8 -40 19t-32 25q-16 16 -28 35t-20 43q-16 44 -16 98z" />
<glyph unicode="T" horiz-adv-x="1356" d="M38 1194v242h1254v-242h-376v-1194h-500v1194h-378z" />
<glyph unicode="U" horiz-adv-x="1572" d="M98 400v1036h502v-1078q0 -20 7 -39t19 -35q14 -20 35 -33t43 -13h476q24 0 42 7t30 17q16 14 23 33t7 39v1102h216v-1056q0 -32 -3 -67t-9 -69q-8 -34 -20 -67t-32 -63q-14 -24 -36 -44t-50 -34q-30 -18 -71 -27t-91 -9h-760q-46 0 -84 8t-70 24q-30 16 -55 39t-43 49 q-22 30 -36 65t-24 71q-8 36 -12 73t-4 71z" />
<glyph unicode="V" horiz-adv-x="1632" d="M0 1436h532l384 -1132l400 1132h240l-512 -1436h-562z" />
<glyph unicode="W" horiz-adv-x="2164" d="M-6 1436h502l214 -940l208 940h500l214 -926l212 926h218l-320 -1436h-484l-224 952l-218 -952h-482z" />
<glyph unicode="X" horiz-adv-x="1664" d="M-12 0l556 630l-556 806h620l288 -418l372 418h306l-546 -608l558 -828h-612l-290 436l-400 -436h-296z" />
<glyph unicode="Y" horiz-adv-x="1590" d="M-22 1436h590l356 -590l334 590h258l-514 -902v-534h-500v556z" />
<glyph unicode="Z" horiz-adv-x="1466" d="M6 0l680 1194h-552v242h1264l-682 -1198h566v-238h-1276z" />
<glyph unicode="[" horiz-adv-x="852" d="M156 1434h654v-220h-282l-2 -1218h286v-222h-654z" />
<glyph unicode="\" horiz-adv-x="680" d="M-86 1436h218l516 -1436h-222z" />
<glyph unicode="]" horiz-adv-x="852" d="M156 -4l282 4l2 1214h-280v220h652v-1660h-656v222z" />
<glyph unicode="^" horiz-adv-x="1220" d="M70 656l448 778h196l448 -780h-206l-338 542l-332 -540h-216z" />
<glyph unicode="_" horiz-adv-x="1078" d="M0 -166h1028v-112h-1028v112z" />
<glyph unicode="`" horiz-adv-x="616" d="M-78 1520h338l328 -328h-318z" />
<glyph unicode="a" d="M64 358v60t4 64t11 63t19 57q14 28 35 51t51 37q24 12 54 18t66 6h496q14 0 28 8t26 22q8 8 13 20t5 22q0 12 -6 24t-16 20q-10 10 -22 16t-24 6h-660v206h920q40 0 74 -7t62 -21q32 -14 55 -36t39 -48q16 -24 27 -51t17 -55q10 -38 13 -76t3 -72v-688h-428l-30 112 q-2 -12 -7 -21t-9 -17q-6 -12 -14 -21t-16 -17q-22 -18 -46 -28q-26 -8 -54 -8h-446q-36 0 -65 6t-53 18q-26 12 -45 31t-33 43q-16 26 -25 59t-13 65q-4 34 -5 68t-1 64zM550 276q0 -10 5 -21t11 -21q10 -10 24 -18t26 -8h192q10 0 22 7t22 17q8 8 13 19t5 21v238h-236 q-16 0 -31 -8t-27 -20q-10 -12 -18 -27t-8 -29v-150z" />
<glyph unicode="b" horiz-adv-x="1452" d="M82 0v1436h486v-382h268h268q40 0 64 -4t37 -8t17 -7t0 -3q26 -10 48 -26t40 -36q36 -42 56 -100q8 -28 13 -60t5 -68v-436q0 -38 -5 -70t-15 -58q-12 -34 -29 -61t-39 -45q-20 -20 -43 -33t-47 -21q-34 -12 -55 -15t-32 -4q-6 0 -9.5 -0.5t-4.5 0.5l-3 1h-509h-511z M564 272q0 -12 6 -23t14 -19q10 -10 21 -16t23 -6h212q10 0 21 6t19 16t13 21t5 23v504q0 10 -5 23t-13 23t-19 17t-23 7h-212q-12 0 -23 -7t-19 -17q-10 -10 -15 -23t-5 -25v-504z" />
<glyph unicode="c" horiz-adv-x="1182" d="M64 304v438q0 28 5 59t15 59q10 30 25 58t35 52q18 20 40 37t50 29q20 8 45 12t51 4h796v-206h-484q-16 0 -32 -8t-28 -20q-14 -12 -22 -27t-8 -29v-476q0 -14 9 -29t21 -25q14 -12 30 -18t32 -6h482v-208h-780q-42 0 -76 8t-62 22q-26 16 -49 36t-39 46q-14 20 -25 44 t-17 48t-10 50t-4 50z" />
<glyph unicode="d" horiz-adv-x="1434" d="M68 286v468q0 36 5 68t15 60t24 50t30 42q20 20 43 35t49 25q34 14 55 19t32 5t15 -2t6 -2h268h268v380h488v-1434h-1024q-42 0 -65 3t-35 8t-16 9t-8 6q-26 12 -48 30t-38 38t-28 44t-20 48q-8 26 -12 51t-4 49zM550 270q0 -10 5 -22t15 -20q8 -10 19 -16t23 -6h212 q10 0 20 7t18 15q8 10 13 22t5 22v510q0 10 -5 22t-13 22t-18 16t-20 6h-216q-10 0 -21 -7t-19 -17t-13 -22t-5 -24v-508z" />
<glyph unicode="e" horiz-adv-x="1430" d="M66 288v474q0 24 2 46t4 42q6 34 16 63t24 51q16 26 37 44t47 28q24 10 52 15t56 5h810q34 0 68 -6t66 -22q24 -12 44 -32t36 -46q10 -20 18 -42t12 -48q4 -34 4 -72v-374h-814v-114q0 -16 8 -33t22 -29q14 -14 30 -22t32 -8h674v-206h-1006q-32 0 -63 5t-57 19 q-24 10 -44 28t-36 44q-12 18 -20 43t-14 55q-4 20 -6 43t-2 49zM550 618h342v166q0 10 -5 21t-13 21t-18 16t-20 6h-232q-10 0 -19 -6t-17 -14q-8 -10 -13 -21t-5 -21v-168z" />
<glyph unicode="f" horiz-adv-x="1146" d="M-4 854v202h200v110q0 20 2 40t8 40q6 26 16 51t26 47q14 18 33 35t41 29q24 12 51 18t61 6h658v-202h-350q-12 0 -22 -2t-16 -6q-12 -8 -15 -18t-3 -20v-126h386v-204h-386v-850h-490v850h-200z" />
<glyph unicode="g" horiz-adv-x="1430" d="M66 300v464q0 24 4 50t12 52t21 50t29 46q18 24 40 43t48 31q24 12 51 19t57 7h1034v-1166q0 -28 -5 -55t-15 -51q-8 -26 -21 -48t-29 -42t-34 -36t-36 -28q-24 -14 -50 -23t-50 -9h-976v204h640q26 0 44 9t30 25q12 14 18 32t6 36v92h-550q-34 0 -63 7t-53 19t-45 28 t-37 36q-16 18 -28 40t-20 46q-12 30 -17 61t-5 61zM552 268q0 -10 5 -21t13 -21q8 -8 19 -14t21 -6h220q10 0 19 5t15 13q8 8 12 18t4 20v522q0 12 -5 23t-13 19q-8 10 -18 16t-20 6h-238q-8 0 -15 -6t-11 -16q-4 -8 -6 -19t-2 -19v-520z" />
<glyph unicode="h" horiz-adv-x="1466" d="M90 2v1436h486v-384h534q36 0 66 -7t56 -21t48 -32t40 -40q16 -22 30 -47t22 -51q12 -34 19 -69t7 -69v-718h-484v792q0 10 -5 20t-13 18q-10 8 -20 13t-20 5h-232q-10 0 -19 -7t-15 -17t-10 -21t-4 -21v-780h-486z" />
<glyph unicode="i" horiz-adv-x="630" d="M118 0v1058h482v-1058h-482zM122 1160v274h474v-274h-474z" />
<glyph unicode="j" horiz-adv-x="652" d="M-320 -190h382q14 0 28 8t24 20q10 14 17 29t7 31v1162h484v-1204q0 -22 -3 -42t-7 -40q-8 -24 -19 -47t-29 -43t-42 -37t-56 -27q-20 -6 -41 -9t-45 -3h-700v202zM142 1162v272h476v-272h-476z" />
<glyph unicode="k" horiz-adv-x="1530" d="M88 0v1434h484v-746l418 364h308l-288 -252l448 -800h-578l-228 494l-80 -78v-418z" />
<glyph unicode="l" horiz-adv-x="630" d="M112 0v1434h488v-1434h-488z" />
<glyph unicode="m" horiz-adv-x="2074" d="M84 0v1054h442v-76q8 16 19 30t23 24q14 10 28 16t30 6h470q34 0 59 -12t41 -30q14 -14 23 -29t14 -27t6 -17t-1 1q4 20 11 40t17 34q10 20 26 31t38 11h386q42 0 75 -9t59 -25t46 -38t34 -48q12 -22 20 -47t14 -51q6 -34 9 -67t3 -63v-706h-442v788q0 14 -5 24t-11 18 q-8 6 -17 10t-19 4h-184q-10 0 -18 -5t-14 -11q-6 -8 -10 -18t-4 -18v-792h-444v784q0 10 -3 22t-9 20q-8 10 -19 16t-27 6h-176q-10 0 -19 -7t-15 -17t-10 -21t-4 -21v-784h-442z" />
<glyph unicode="n" horiz-adv-x="1464" d="M86 0v1052h1022q76 0 136 -34q54 -28 90 -82q14 -20 26 -47t20 -57t12 -64t4 -72v-696h-484v784q0 16 -5 27t-13 19q-10 10 -23 14t-25 4h-210q-10 0 -22 -4t-20 -12q-8 -6 -14 -18t-6 -28v-786h-488z" />
<glyph unicode="o" horiz-adv-x="1446" d="M62 264v508q0 28 2 52t6 46q8 34 20 62t28 46q18 22 39 36t43 22q24 8 49 12t49 4h836q28 0 55 -4t51 -12t43 -21t37 -33q16 -20 29 -47t21 -63q4 -22 6 -47t2 -55v-498q0 -32 -3 -59t-9 -51q-8 -28 -20 -52t-28 -40q-14 -18 -33 -31t-39 -21q-26 -10 -55 -14t-57 -4 h-822q-32 0 -63 6t-59 20q-22 12 -42 28t-36 36q-14 20 -25 44t-17 54q-4 16 -6 35t-2 41zM546 272q0 -12 6 -23t14 -19q8 -10 19 -16t21 -6h230q10 0 21 6t19 14q10 8 15 19t5 21v520q0 10 -5 20t-13 18t-18 13t-18 5h-264q-6 0 -13 -6t-11 -14t-6 -17t-2 -17v-518z" />
<glyph unicode="p" horiz-adv-x="1448" d="M84 -398v1452h1028q28 0 57 -6t55 -18q42 -18 74 -52q24 -24 42 -57t28 -75q6 -26 9 -55t3 -61v-410q0 -32 -3 -61t-9 -55q-10 -32 -23 -60t-29 -50t-36 -38t-42 -28q-30 -14 -62 -21t-64 -7h-546v-398h-482zM564 262q0 -8 5 -18t13 -18t18 -13t20 -5h222q10 0 19 5 t17 11q8 10 13 21t5 21v524q0 10 -5 20t-13 18t-18 13t-20 5h-226q-10 0 -19 -7t-15 -15q-8 -10 -12 -21t-4 -21v-520z" />
<glyph unicode="q" horiz-adv-x="1432" d="M64 288v468q0 28 4 58t14 58t25 55t35 49q16 16 35 31t43 25t51 16t59 6h1034v-1450h-484v396h-538q-36 0 -67 7t-57 19q-28 14 -49 31t-39 37q-16 20 -29 44t-21 48q-8 26 -12 51t-4 51zM548 268q0 -10 5 -21t13 -19q8 -10 18 -15t20 -5h222q12 0 22 7t18 17q6 8 10 16 t4 18v524q0 10 -6 20t-14 18t-18 13t-20 5h-218q-10 0 -19 -5t-15 -13q-10 -10 -16 -23t-6 -25v-512z" />
<glyph unicode="r" horiz-adv-x="1098" d="M110 0v1054h488v-94q10 16 26 30q6 8 15 15t17 11q12 8 24 15t24 11q14 4 27 7t25 3h290v-292h-256q-38 0 -70 -8q-34 -8 -58 -22q-14 -6 -24 -15t-18 -21q-12 -12 -17 -27t-5 -33v-634h-488z" />
<glyph unicode="s" horiz-adv-x="1350" d="M88 536v280q0 28 6 51t16 45q12 20 26 38t32 32q18 16 39 28t43 20q28 10 58 16t58 6h862v-194h-644q-6 0 -15 -3t-17 -7t-13 -10t-5 -14v-58q0 -8 6 -13t14 -9t17 -6t17 -2h474q22 0 45 -4t43 -10q22 -8 41 -20t35 -28q14 -14 25 -32t19 -40q8 -20 12 -46t4 -56v-246 q0 -28 -5 -54t-15 -50q-8 -22 -22 -41t-28 -35q-18 -16 -38 -29t-40 -23q-28 -12 -57 -17t-57 -5h-928v190h688q8 0 17 4t15 10q8 4 12 12t4 16v58q0 8 -4 15t-12 11q-8 6 -16 9t-16 3h-474q-28 0 -57 5t-57 17q-18 8 -35 20t-29 28q-12 14 -21 31t-15 35q-4 16 -6 34t-2 38 z" />
<glyph unicode="t" horiz-adv-x="1148" d="M-12 850v204h204v228h490v-228h386v-204h-386v-588q0 -10 3 -20t9 -18t18 -13t30 -5h352v-204h-640q-42 0 -77 9t-63 25q-20 14 -37 30t-31 34q-14 22 -25 46t-17 50q-4 20 -6 39t-2 39v576h-208z" />
<glyph unicode="u" horiz-adv-x="1464" d="M90 318v738h480v-792q0 -10 6 -21t14 -19q10 -8 21 -13t21 -5h218q10 0 21 4t19 12t14 17t6 19v796h486v-1054h-1022q-34 0 -64 7t-56 19q-26 14 -48 33t-40 41t-33 49t-25 55q-8 28 -13 57t-5 57z" />
<glyph unicode="v" horiz-adv-x="1380" d="M-20 1056h528l306 -788l292 788h210l-396 -1056h-516z" />
<glyph unicode="w" horiz-adv-x="1992" d="M4 1052h488l174 -670l158 670h560l166 -674l170 674h178l-238 -1052h-504l-194 804l-190 -804h-506z" />
<glyph unicode="x" horiz-adv-x="1506" d="M4 0l482 448l-448 606h622l190 -266l268 268h314l-460 -432l464 -624h-630l-204 282l-312 -282h-286z" />
<glyph unicode="y" horiz-adv-x="1442" d="M90 326v730h484v-784q0 -10 4 -21t12 -19q8 -12 20 -18t22 -6h218q10 0 18 5t14 15q6 8 9 19t3 19v784h480v-1196q0 -20 -4 -42t-10 -44q-8 -22 -19 -42t-25 -38t-32 -33t-40 -27q-22 -10 -47 -16t-55 -6h-992v204h672q16 0 30 5t24 13q8 8 13 18t5 22v132h-522 q-36 0 -68 8t-60 24t-51 38t-43 50q-14 20 -25 44t-19 50t-12 54t-4 58z" />
<glyph unicode="z" horiz-adv-x="1386" d="M32 0l572 848h-524v204h1236l-554 -840h558v-212h-1288z" />
<glyph unicode="{" horiz-adv-x="894" d="M16 618l180 206v300q0 26 7 54t19 54q12 28 30 53t40 49q20 22 45 41t51 31q26 14 53 22t55 8h356v-216h-190q-16 0 -33 -9t-29 -23t-20 -31t-8 -33v-300l-180 -206l180 -204v-330q0 -16 9 -34t21 -30q14 -14 31 -22t35 -8h184v-216h-324q-34 0 -71 11t-73 29 q-28 14 -54 33t-46 41q-20 20 -36 42t-28 44t-18 46t-6 48v346z" />
<glyph unicode="|" horiz-adv-x="346" d="M116 0v1436h214v-1436h-214z" />
<glyph unicode="}" horiz-adv-x="894" d="M16 -10h184q16 0 33 8t31 22q14 12 23 30t9 34v330l180 204l-180 206v300q0 16 -8 33t-22 31q-12 14 -28 23t-32 9h-190v216h356q26 0 54 -8t54 -22q26 -12 50 -31t46 -41q20 -24 38 -49t30 -53q14 -26 21 -54t7 -54v-300l180 -206l-180 -204v-346q0 -24 -7 -48t-19 -46 q-10 -22 -26 -44t-36 -42q-22 -22 -48 -41t-54 -33q-34 -18 -72 -29t-72 -11h-322v216z" />
<glyph unicode="~" horiz-adv-x="1110" d="M176 524q20 50 45 84t55 56t63 32t71 12q24 0 50 -6t51 -15t51 -20t52 -25q26 -12 52 -25t52 -23t53 -18t53 -12q18 -2 35 5t31 17q16 12 29 26t25 28l114 -112q-38 -58 -66 -92t-54 -54q-24 -18 -52 -24t-64 -8q-26 0 -51 6t-50 16t-51 23t-52 25q-26 14 -52 27t-52 23 t-53 17t-55 7q-16 0 -33 -7t-33 -17q-14 -12 -28 -26t-26 -28z" />
<glyph unicode="&#xa1;" horiz-adv-x="630" d="M112 1054v380h488v-380h-488zM114 0v602l48 370h394l44 -398v-574h-486z" />
<glyph unicode="&#xa2;" horiz-adv-x="1056" d="M116 538v368q0 24 4 49t12 51q8 24 20 48t30 44q16 16 34 30t42 24q18 6 38 10t42 4h158l-2 224h176v-224h336v-174h-406q-14 0 -27 -6t-23 -16q-12 -10 -19 -23t-7 -25v-398q0 -14 8 -25t18 -21q12 -10 25 -16t27 -6h404v-174h-336v-232h-176l2 232h-144q-34 0 -63 7 t-53 21q-22 12 -41 29t-33 37q-12 18 -21 38t-15 40q-4 22 -7 43t-3 41z" />
<glyph unicode="&#xa3;" horiz-adv-x="1338" d="M20 624v182h104v380q0 22 3 44t8 44t14 42t22 38t32 33t43 25t55 16t69 6h634q20 0 40 -6t39 -17t37 -26t33 -34t27 -39t21 -41t13 -43t4 -42v-154h-372v102q0 8 -5 18t-13 18q-12 10 -27 18t-31 8h-66q-14 0 -29 -5t-25 -15q-10 -8 -15 -19t-5 -23v-328h102v-176h-102 v-396h646v-232h-1152v622h-104z" />
<glyph unicode="&#xa4;" horiz-adv-x="1274" d="M16 10v454h202q26 0 48 -8t40 -21t33 -32t25 -41q16 -34 22 -63t5 -58t-8 -57t-19 -60q-16 -52 -55 -82t-93 -32h-50h-50h-49h-51zM78 62q32 0 63 -4t58 -2t50 13t41 41q20 30 32 68t11 77t-16 75t-45 58q-22 16 -45 21t-47 6t-49 -1t-53 -2v-350zM438 232q0 48 13 89 t43 79q20 24 38 38t39 22t44 11t53 3q26 -2 50 -7t44 -16t37 -29t29 -42q6 -12 11 -27t5 -27h-28h-28q-6 18 -10 31t-11 23t-19 16t-36 14q-18 6 -36 10t-37 2t-36 -9t-35 -21q-16 -10 -28 -26t-21 -36t-15 -41t-8 -44t0 -45t8 -43t17 -39t27 -30q22 -22 49 -33t56 -10 t56 12t49 33q12 12 19 24t12 24t6 27t1 33h-140v52h196v-240h-38l-16 58q-8 -10 -18 -20t-20 -18t-21 -14t-27 -8q-16 -4 -30 -6t-28 -2t-29 1t-31 3q-38 6 -66 23t-50 49q-20 36 -30 75t-10 81zM922 10v454h60v-400h232v-54h-292z" />
<glyph unicode="&#xa5;" horiz-adv-x="1622" d="M4 1436h592l358 -590l334 590h258l-284 -496l146 2v-188h-252l-100 -174h354v-182h-380v-398h-500v398h-366v184h350l-102 174h-250v188l138 -2z" />
<glyph unicode="&#xa7;" horiz-adv-x="1298" d="M126 276v300q0 34 11 71t33 67q18 24 43 41t59 23q-26 6 -50 18t-42 28q-24 22 -39 50t-15 58v290q0 44 16 80t42 64q16 18 36 31t42 22t44 13t44 4h834v-206h-666q-8 0 -19 -3t-21 -9q-8 -4 -14 -12t-6 -18v-94q0 -12 5 -22t13 -18q8 -6 17 -10t17 -4h492q22 0 46 -4 t46 -11t43 -19t39 -28q28 -26 45 -65t17 -93v-274q0 -20 -2 -42t-6 -43t-12 -40t-20 -39q-16 -20 -38 -39t-54 -33q36 -20 61 -43t41 -49t23 -55t7 -59v-252q0 -54 -19 -100t-47 -78q-30 -34 -69 -52t-81 -18h-834v206h662q8 0 19 4t21 8q8 6 14 14t6 16v142q0 6 -5 14 t-13 14q-6 8 -16 11t-18 3h-496q-44 0 -89 18t-79 52q-30 30 -49 73t-19 97zM458 476q0 -12 4 -21t12 -17q6 -8 16 -12t20 -4h342q12 0 22 4t16 10q8 8 12 18t4 22v124q0 12 -4 21t-10 17q-8 8 -18 12t-22 4h-342q-10 0 -19 -4t-17 -10q-8 -8 -12 -18t-4 -22v-124z" />
<glyph unicode="&#xa8;" horiz-adv-x="804" d="M-54 1202v290h350v-290h-350zM414 1202v290h352v-290h-352z" />
<glyph unicode="&#xa9;" horiz-adv-x="1578" d="M130 726q0 70 14 138t40 129t64 116t84 101q46 48 101 85t117 63t129 40t137 14q72 0 139 -14t129 -40t117 -63t101 -85q46 -46 83 -101t64 -116t41 -129t14 -138t-14 -138t-41 -129t-64 -116t-83 -103q-48 -46 -103 -83t-116 -63t-128 -40t-139 -14q-70 0 -137 14 t-129 40t-117 63t-101 83q-48 48 -85 103t-63 116t-40 129t-14 138zM330 720q0 -50 10 -98t28 -92t45 -83t59 -71q34 -34 73 -60t83 -45t91 -29t99 -10q50 0 98 10t91 29t82 45t73 60q34 32 60 71t45 83t29 92t10 98t-10 98t-29 92t-45 83t-60 71q-34 34 -73 61t-82 45 t-91 28t-98 10q-52 0 -99 -10t-91 -28t-83 -45t-73 -61q-32 -32 -59 -71t-45 -83t-28 -92t-10 -98zM522 544v352q0 32 10 62q4 16 11 30t17 26q16 20 36 32q28 18 58 18h402v-114h-260q-6 0 -13 -3t-11 -7q-6 -6 -9 -12t-3 -12v-390q0 -6 4 -12t10 -12q4 -4 11 -7t13 -3h268 v-114h-402q-32 0 -62 14q-12 8 -24 17t-22 21q-8 10 -15 23t-11 29q-4 14 -6 29t-2 33z" />
<glyph unicode="&#xad;" horiz-adv-x="1194" d="M82 428v210h267h261h261h267v-210h-528h-528z" />
<glyph unicode="&#xae;" horiz-adv-x="1578" d="M130 726q0 70 14 138t40 129t64 116t84 101q46 48 101 85t117 63t129 40t137 14q72 0 139 -14t129 -40t117 -63t101 -85q46 -46 83 -101t64 -116t41 -129t14 -138t-14 -138t-41 -129t-64 -116t-83 -103q-48 -46 -103 -83t-116 -63t-128 -40t-139 -14q-70 0 -137 14 t-129 40t-117 63t-101 83q-48 48 -85 103t-63 116t-40 129t-14 138zM328 726q0 -50 10 -98t29 -92t45 -83t60 -71q34 -34 73 -60t82 -45t91 -29t98 -10q52 0 99 10t91 29t83 45t73 60q32 32 59 71t45 83t28 92t10 98t-10 98t-28 92t-45 83t-59 71q-34 34 -73 60t-83 45 t-91 29t-99 10q-50 0 -98 -10t-91 -29t-82 -45t-73 -60q-34 -32 -60 -71t-45 -83t-29 -92t-10 -98zM518 386v680h442q34 0 56 -8q24 -10 38 -30q16 -20 22 -50q4 -12 5 -26t1 -30v-140q0 -10 -1 -20t-3 -20q0 -10 -4 -19t-10 -17q-4 -6 -10 -11t-14 -9q-8 -2 -18 -4t-24 -2 l118 -294h-228l-98 294h-66v-294h-206zM726 794h128q12 0 18 8q2 4 3 10t1 14v104q0 6 -2 11t-6 9q-2 2 -7 3t-9 1h-126v-160z" />
<glyph unicode="&#xb4;" horiz-adv-x="616" d="M-78 1192l326 328h340l-350 -328h-316z" />
<glyph unicode="&#xb6;" horiz-adv-x="1166" d="M-18 1044q0 100 31 175t87 123q56 50 133 74t165 24h714v-1830h-238v1030h-198v-1036h-244v1036q-92 -2 -175 23t-143 75q-62 50 -97 127t-35 179z" />
<glyph unicode="&#xb7;" horiz-adv-x="708" d="M348 718q0 34 13 64t35 52t52 35t64 13t64 -13t52 -35t35 -52t13 -64t-13 -64t-35 -52q-22 -24 -52 -37t-64 -13t-64 13t-52 37q-22 22 -35 52t-13 64z" />
<glyph unicode="&#xb8;" horiz-adv-x="600" d="M160 -122h48l72 122h140l-72 -124h116q16 0 29 -3t23 -9q12 -4 20 -12t16 -18q10 -16 16 -36q4 -20 4 -40v-168q0 -12 -1 -24t-5 -24q-4 -10 -10 -21t-14 -21q-8 -8 -16 -14t-20 -10q-8 -4 -17 -6t-19 -2h-310v80h188q6 0 13 3t11 9q6 4 9 10t3 12v184q0 6 -4 11t-8 9 q-6 6 -12 8t-12 2h-188v82z" />
<glyph unicode="&#xbc;" horiz-adv-x="2390" d="M92 1174v152l336 110h70v-858h-296v596h-110zM540 0l742 1436h288l-748 -1436h-282zM1322 192v212l472 454h348v-442h136v-224h-138v-192h-290v192h-528zM1542 420h306v284z" />
<glyph unicode="&#xbd;" horiz-adv-x="2386" d="M92 1174v152l336 110h70v-858h-296v596h-110zM540 0l742 1436h288l-748 -1436h-282zM1460 0v406q0 16 1 32t5 32q2 12 7 24t11 22q8 10 17 19t23 15q10 4 23 7t27 3l370 20q6 0 12 3t12 9q4 4 8 10t4 12v84q0 6 -4 10t-8 6q-6 2 -12 3t-10 1h-468v142h620q16 0 34 -2 t34 -8q18 -6 34 -16t28 -22q12 -10 21 -25t15 -31q6 -14 8 -30t2 -32v-230q0 -14 -2 -26t-6 -22q-2 -12 -8 -22t-12 -18q-6 -10 -15 -18t-19 -14q-12 -8 -26 -13t-28 -5l-342 -18q-12 0 -23 -2t-17 -6q-8 -6 -13 -14t-5 -22v-122h496v-142h-794z" />
<glyph unicode="&#xbe;" horiz-adv-x="2390" d="M-12 1294v140h582q16 0 32 -1t34 -5q16 -4 31 -11t27 -17q10 -8 19 -18t15 -24q6 -12 9 -28t3 -36v-180q0 -22 -9 -38t-25 -28q-10 -8 -26 -16t-34 -16q22 -4 39 -14t29 -26q12 -14 19 -33t7 -41v-192q0 -16 -3 -29t-7 -25q-10 -22 -26 -40q-10 -10 -21 -17t-21 -11 q-24 -10 -50 -10h-622v142h422q6 0 11 3t9 9q6 4 8 10t2 10v164q0 4 -3 9t-7 9q-6 2 -11 5t-11 3h-298v140h296q6 0 11 2t11 6q4 4 7 8t3 10v158q0 6 -3 11t-7 9q-6 4 -11 6t-11 2h-420zM540 0l742 1436h288l-748 -1436h-282zM1322 192v212l472 454h348v-442h136v-224h-138 v-192h-290v192h-528zM1542 420h306v284z" />
<glyph unicode="&#xbf;" horiz-adv-x="1416" d="M70 250v272q0 20 5 41t15 43q8 20 20 40t28 38q14 18 32 33t36 25q20 12 40 18t40 6h210q14 0 31 5t31 13q14 10 24 23t10 27v130h502v-210q0 -18 -4 -38t-12 -40t-19 -40t-25 -36t-30 -31t-34 -25q-16 -10 -35 -16t-37 -6h-250q-12 0 -26 -5t-26 -15q-12 -8 -20 -19 t-8 -23v-200q0 -12 9 -22t21 -18q14 -8 28 -12t28 -4h696v-204h-1014q-22 0 -46 6t-46 16q-24 10 -45 25t-41 31q-18 18 -35 39t-27 41q-12 22 -19 45t-7 47zM608 1060v376h486v-376h-486z" />
<glyph unicode="&#xc0;" horiz-adv-x="1760" d="M-4 0l636 1430h502l544 -1430h-536l-148 380h-582l-174 -380h-242zM480 1804h340l328 -330h-318zM518 620h394l-194 488z" />
<glyph unicode="&#xc1;" horiz-adv-x="1760" d="M-4 0l636 1430h502l544 -1430h-536l-148 380h-582l-174 -380h-242zM518 620h394l-194 488zM614 1474l330 330h340l-352 -330h-318z" />
<glyph unicode="&#xc2;" horiz-adv-x="1760" d="M-4 0l636 1430h502l544 -1430h-536l-148 380h-582l-174 -380h-242zM466 1480l244 324h350l244 -324h-318l-102 166l-118 -166h-300zM518 620h394l-194 488z" />
<glyph unicode="&#xc3;" horiz-adv-x="1760" d="M-4 0l636 1430h502l544 -1430h-536l-148 380h-582l-174 -380h-242zM472 1478q2 24 7 50t13 53t21 53t29 50t35 44t42 35t50 23t57 8q40 0 83 -12t84 -28t79 -29t68 -17q28 -2 47 22t29 64h164q-4 -26 -7 -53t-9 -53t-15 -51t-21 -46t-30 -39t-41 -31t-54 -20t-69 -7 q-20 0 -42 3t-43 9t-43 13l-44 14t-42 15t-37 14t-32 10t-25 4q-16 2 -30 -7t-25 -24t-19 -33t-12 -34h-168zM518 620h394l-194 488z" />
<glyph unicode="&#xc4;" horiz-adv-x="1760" d="M-4 0l636 1430h502l544 -1430h-536l-148 380h-582l-174 -380h-242zM464 1480v290h352v-290h-352zM518 620h394l-194 488zM936 1480v290h350v-290h-350z" />
<glyph unicode="&#xc5;" horiz-adv-x="1760" d="M-4 0l636 1430h502l544 -1430h-536l-148 380h-582l-174 -380h-242zM518 620h394l-194 488zM698 1662q0 38 14 71t39 58t58 39t71 14q36 0 70 -14t58 -39t39 -58t15 -71t-15 -71t-39 -57t-58 -39t-70 -15q-38 0 -71 15t-58 39t-39 57t-14 71zM794 1662q0 -18 7 -33t18 -27 t27 -18t34 -6t33 6t27 18t18 27t6 33t-6 33t-18 27t-27 19t-33 7t-34 -7t-27 -19t-18 -27t-7 -33z" />
<glyph unicode="&#xc6;" horiz-adv-x="2104" d="M-64 0l790 1434h1264v-232h-600v-344h584v-234h-584v-390h614v-232h-1120l2 378h-488l-192 -380h-270zM506 618h380v630z" />
<glyph unicode="&#xc7;" horiz-adv-x="1290" d="M88 344v740q0 36 5 68t13 62q12 34 27 64t33 54q18 22 37 40t41 30q28 18 59 27t65 9h842v-236h-548q-12 0 -25 -7t-23 -17q-12 -12 -18 -25t-6 -25v-820q0 -12 7 -25t19 -23t26 -16t28 -6h560v-238h-450l-70 -122h124q18 0 36 -10t32 -26q14 -18 24 -41t10 -43v-172 q0 -20 -8 -42t-22 -40q-12 -16 -28 -26t-34 -10h-322v80h196q4 0 9 3t9 7t7 9t3 9v194q0 6 -4 11t-8 9q-6 2 -13 4t-13 2h-184l-2 82h48l70 122h-254q-34 0 -67 7t-63 21q-26 14 -51 33t-45 45q-16 22 -31 50t-23 60q-8 28 -13 60t-5 68z" />
<glyph unicode="&#xc8;" horiz-adv-x="1284" d="M104 2v1432h1106v-232h-600v-344h584v-234h-584v-390h614v-232h-1120zM338 1810h340l330 -330h-318z" />
<glyph unicode="&#xc9;" horiz-adv-x="1284" d="M104 2v1432h1106v-232h-600v-344h584v-234h-584v-390h614v-232h-1120zM338 1480l330 330h340l-352 -330h-318z" />
<glyph unicode="&#xca;" horiz-adv-x="1284" d="M104 2v1432h1106v-232h-600v-344h584v-234h-584v-390h614v-232h-1120zM268 1480l244 324h350l244 -324h-316l-102 166l-120 -166h-300z" />
<glyph unicode="&#xcb;" horiz-adv-x="1284" d="M104 2v1432h1106v-232h-600v-344h584v-234h-584v-390h614v-232h-1120zM244 1480v290h352v-290h-352zM714 1480v290h350v-290h-350z" />
<glyph unicode="&#xcc;" horiz-adv-x="782" d="M78 1810h340l328 -330h-318zM142 0v1430l504 4v-1434h-504z" />
<glyph unicode="&#xcd;" horiz-adv-x="782" d="M78 1480l328 330h340l-350 -330h-318zM142 0v1430l504 4v-1434h-504z" />
<glyph unicode="&#xce;" horiz-adv-x="858" d="M-18 1480l242 324h350l244 -324h-318l-102 166l-118 -166h-298zM142 0v1430l504 4v-1434h-504z" />
<glyph unicode="&#xcf;" horiz-adv-x="844" d="M-14 1480v290h350v-290h-350zM142 0v1430l504 4v-1434h-504zM454 1480v290h350v-290h-350z" />
<glyph unicode="&#xd0;" horiz-adv-x="1538" d="M-20 622v238h124v574h1036q30 0 59 -4t57 -12q36 -10 69 -30t59 -48q20 -22 37 -52t27 -66q8 -28 13 -61t5 -69v-744q0 -38 -4 -71t-12 -61q-10 -36 -25 -65t-35 -51q-20 -24 -45 -42t-51 -28q-36 -16 -74 -22t-76 -6h-1040v620h-124zM610 234h292q12 0 23 8t19 20 q8 10 13 24t5 26v830q0 10 -6 20t-16 18q-8 8 -20 13t-22 5h-288v-336h192v-240h-192v-388z" />
<glyph unicode="&#xd1;" horiz-adv-x="1606" d="M108 4v1432h654l544 -1172v1172h224v-1432h-654l-552 1194v-1194h-216zM422 1478q2 24 6 50t13 53t21 53t28 50t36 44t43 35t49 23t56 8q42 0 84 -12t84 -28t79 -29t69 -17q28 -2 47 22t29 64h164q-4 -26 -8 -53t-9 -53t-14 -51t-22 -46t-30 -39t-41 -31t-54 -20t-68 -7 q-20 0 -42 3t-44 9t-44 13t-43 14t-41 15t-37 14t-32 10t-27 4q-16 2 -30 -7t-25 -24t-19 -33t-10 -34h-168z" />
<glyph unicode="&#xd2;" horiz-adv-x="1586" d="M92 358v708q0 44 5 82t13 70q10 36 25 66t33 52q20 24 44 42t50 30q34 14 72 21t76 7h782q36 0 71 -6t65 -20q32 -12 60 -33t50 -53q20 -28 36 -65t26 -83q6 -32 9 -69t3 -79v-616q0 -46 -4 -86t-12 -76q-8 -42 -24 -79t-36 -65q-34 -44 -78 -70q-30 -16 -64 -24t-74 -8 h-840q-34 0 -63 7t-55 19q-32 16 -58 40t-46 54q-16 26 -29 55t-21 61q-8 30 -12 60t-4 58zM450 1810h342l328 -330h-318zM590 310q0 -14 8 -27t18 -23q12 -10 26 -17t28 -7h268q14 0 27 8t23 20q10 10 16 24t6 28v806q0 14 -6 28t-18 24q-10 10 -24 17t-26 7h-256 q-20 0 -35 -7t-27 -17q-14 -14 -21 -33t-7 -37v-794z" />
<glyph unicode="&#xd3;" horiz-adv-x="1586" d="M92 358v708q0 44 5 82t13 70q10 36 25 66t33 52q20 24 44 42t50 30q34 14 72 21t76 7h782q36 0 71 -6t65 -20q32 -12 60 -33t50 -53q20 -28 36 -65t26 -83q6 -32 9 -69t3 -79v-616q0 -46 -4 -86t-12 -76q-8 -42 -24 -79t-36 -65q-34 -44 -78 -70q-30 -16 -64 -24t-74 -8 h-840q-34 0 -63 7t-55 19q-32 16 -58 40t-46 54q-16 26 -29 55t-21 61q-8 30 -12 60t-4 58zM450 1480l330 330h340l-350 -330h-320zM590 310q0 -14 8 -27t18 -23q12 -10 26 -17t28 -7h268q14 0 27 8t23 20q10 10 16 24t6 28v806q0 14 -6 28t-18 24q-10 10 -24 17t-26 7h-256 q-20 0 -35 -7t-27 -17q-14 -14 -21 -33t-7 -37v-794z" />
<glyph unicode="&#xd4;" horiz-adv-x="1586" d="M92 358v708q0 44 5 82t13 70q10 36 25 66t33 52q20 24 44 42t50 30q34 14 72 21t76 7h782q36 0 71 -6t65 -20q32 -12 60 -33t50 -53q20 -28 36 -65t26 -83q6 -32 9 -69t3 -79v-616q0 -46 -4 -86t-12 -76q-8 -42 -24 -79t-36 -65q-34 -44 -78 -70q-30 -16 -64 -24t-74 -8 h-840q-34 0 -63 7t-55 19q-32 16 -58 40t-46 54q-16 26 -29 55t-21 61q-8 30 -12 60t-4 58zM388 1480l242 324h352l242 -324h-316l-102 166l-118 -166h-300zM590 310q0 -14 8 -27t18 -23q12 -10 26 -17t28 -7h268q14 0 27 8t23 20q10 10 16 24t6 28v806q0 14 -6 28t-18 24 q-10 10 -24 17t-26 7h-256q-20 0 -35 -7t-27 -17q-14 -14 -21 -33t-7 -37v-794z" />
<glyph unicode="&#xd5;" horiz-adv-x="1586" d="M92 358v708q0 44 5 82t13 70q10 36 25 66t33 52q20 24 44 42t50 30q34 14 72 21t76 7h782q36 0 71 -6t65 -20q32 -12 60 -33t50 -53q20 -28 36 -65t26 -83q6 -32 9 -69t3 -79v-616q0 -46 -4 -86t-12 -76q-8 -42 -24 -79t-36 -65q-34 -44 -78 -70q-30 -16 -64 -24t-74 -8 h-840q-34 0 -63 7t-55 19q-32 16 -58 40t-46 54q-16 26 -29 55t-21 61q-8 30 -12 60t-4 58zM394 1478q0 24 5 51t14 53t21 52t28 50t35 44t42 35t50 23t57 8q40 0 83 -12t84 -28t79 -29t70 -17q28 -2 46 22t28 64h164q-2 -26 -6 -53t-10 -53t-14 -51t-21 -46t-30 -39 t-41 -31t-54 -20t-70 -7q-20 0 -41 4t-43 9t-44 12t-43 14t-41 15t-38 14t-32 10t-26 4q-16 2 -30 -7t-25 -24t-19 -33t-12 -34h-166zM590 310q0 -14 8 -27t18 -23q12 -10 26 -17t28 -7h268q14 0 27 8t23 20q10 10 16 24t6 28v806q0 14 -6 28t-18 24q-10 10 -24 17t-26 7 h-256q-20 0 -35 -7t-27 -17q-14 -14 -21 -33t-7 -37v-794z" />
<glyph unicode="&#xd6;" horiz-adv-x="1586" d="M92 358v708q0 44 5 82t13 70q10 36 25 66t33 52q20 24 44 42t50 30q34 14 72 21t76 7h782q36 0 71 -6t65 -20q32 -12 60 -33t50 -53q20 -28 36 -65t26 -83q6 -32 9 -69t3 -79v-616q0 -46 -4 -86t-12 -76q-8 -42 -24 -79t-36 -65q-34 -44 -78 -70q-30 -16 -64 -24t-74 -8 h-840q-34 0 -63 7t-55 19q-32 16 -58 40t-46 54q-16 26 -29 55t-21 61q-8 30 -12 60t-4 58zM380 1480v290h352v-290h-352zM590 310q0 -14 8 -27t18 -23q12 -10 26 -17t28 -7h268q14 0 27 8t23 20q10 10 16 24t6 28v806q0 14 -6 28t-18 24q-10 10 -24 17t-26 7h-256 q-20 0 -35 -7t-27 -17q-14 -14 -21 -33t-7 -37v-794zM850 1480v290h350v-290h-350z" />
<glyph unicode="&#xd7;" horiz-adv-x="1150" d="M92 246l350 350l-350 350l152 152l350 -350l350 350l152 -154l-350 -348l350 -350l-152 -152l-350 348l-350 -348z" />
<glyph unicode="&#xd8;" horiz-adv-x="1698" d="M-16 -240l224 308q-14 12 -27 26t-23 30q-16 26 -29 55t-21 61q-8 30 -12 60t-4 58v708q0 44 5 82t13 70q10 36 25 66t33 52q20 24 44 42t50 30q34 14 72 21t76 7h782q8 0 17 -1t17 -1l160 218l232 2l-216 -290q20 -18 36 -40q20 -28 36 -65t26 -83q6 -32 9 -69t3 -79 v-616q0 -46 -4 -86t-12 -76q-8 -42 -24 -79t-36 -65q-16 -22 -36 -40t-42 -30q-30 -16 -64 -24t-74 -8h-828l-184 -244h-224zM590 274q4 -8 9 -16t13 -14q10 -10 24 -17t26 -7h256q20 0 35 7t25 17q14 16 22 35t8 37v524zM590 580l416 564q-2 8 -8 16t-12 14q-10 10 -24 17 t-26 7h-256q-20 0 -35 -7t-27 -17q-14 -14 -21 -33t-7 -37v-524z" />
<glyph unicode="&#xd9;" horiz-adv-x="1572" d="M98 400v1036h502v-1078q0 -20 7 -39t19 -35q14 -20 35 -33t43 -13h476q24 0 42 7t30 17q16 14 23 33t7 39v1102h216v-1056q0 -32 -3 -67t-9 -69q-8 -34 -20 -67t-32 -63q-14 -24 -36 -44t-50 -34q-30 -18 -71 -27t-91 -9h-760q-46 0 -84 8t-70 24q-30 16 -55 39t-43 49 q-22 30 -36 65t-24 71q-8 36 -12 73t-4 71zM446 1810h340l328 -330h-318z" />
<glyph unicode="&#xda;" horiz-adv-x="1572" d="M98 400v1036h502v-1078q0 -20 7 -39t19 -35q14 -20 35 -33t43 -13h476q24 0 42 7t30 17q16 14 23 33t7 39v1102h216v-1056q0 -32 -3 -67t-9 -69q-8 -34 -20 -67t-32 -63q-14 -24 -36 -44t-50 -34q-30 -18 -71 -27t-91 -9h-760q-46 0 -84 8t-70 24q-30 16 -55 39t-43 49 q-22 30 -36 65t-24 71q-8 36 -12 73t-4 71zM446 1480l328 330h340l-350 -330h-318z" />
<glyph unicode="&#xdb;" horiz-adv-x="1572" d="M98 400v1036h502v-1078q0 -20 7 -39t19 -35q14 -20 35 -33t43 -13h476q24 0 42 7t30 17q16 14 23 33t7 39v1102h216v-1056q0 -32 -3 -67t-9 -69q-8 -34 -20 -67t-32 -63q-14 -24 -36 -44t-50 -34q-30 -18 -71 -27t-91 -9h-760q-46 0 -84 8t-70 24q-30 16 -55 39t-43 49 q-22 30 -36 65t-24 71q-8 36 -12 73t-4 71zM398 1480l244 324h350l244 -324h-318l-102 166l-118 -166h-300z" />
<glyph unicode="&#xdc;" horiz-adv-x="1572" d="M98 400v1036h502v-1078q0 -20 7 -39t19 -35q14 -20 35 -33t43 -13h476q24 0 42 7t30 17q16 14 23 33t7 39v1102h216v-1056q0 -32 -3 -67t-9 -69q-8 -34 -20 -67t-32 -63q-14 -24 -36 -44t-50 -34q-30 -18 -71 -27t-91 -9h-760q-46 0 -84 8t-70 24q-30 16 -55 39t-43 49 q-22 30 -36 65t-24 71q-8 36 -12 73t-4 71zM368 1480v290h352v-290h-352zM840 1480v290h350v-290h-350z" />
<glyph unicode="&#xdd;" horiz-adv-x="1590" d="M-22 1436h590l356 -590l334 590h258l-514 -902v-534h-500v556zM440 1480l328 330h340l-350 -330h-318z" />
<glyph unicode="&#xde;" horiz-adv-x="1538" d="M104 0v1438h508v-230h568q26 0 51 -4t51 -12q24 -8 47 -20t43 -28q26 -20 46 -49t32 -65q8 -22 12 -48t4 -54v-356q0 -38 -6 -70t-16 -60q-12 -26 -27 -47t-33 -37q-22 -20 -46 -33t-50 -21t-53 -12t-55 -4h-568v-288h-508zM610 518h282q14 0 27 8t23 22q10 12 16 27 t6 29v294q0 12 -5 26t-15 24q-10 12 -22 19t-24 7h-288v-456z" />
<glyph unicode="&#xdf;" horiz-adv-x="1512" d="M2 852v200h140v92q0 30 6 60t20 58q10 20 23 41t31 39q18 20 42 37t52 29t60 19t68 7h686q18 0 36 -2t36 -6t36 -12t32 -18q28 -18 46 -47t18 -71v-194q0 -34 -15 -56t-47 -40q-20 -10 -47 -20t-61 -20q34 0 63 -4t53 -10q36 -10 61 -25t43 -35q20 -24 32 -53t16 -59 q6 -32 7 -64t1 -64v-346q0 -34 -4 -63t-10 -53q-8 -32 -21 -57t-31 -43q-14 -18 -33 -30t-39 -20q-28 -10 -58 -15t-64 -5h-462v200h184q8 0 17 4t17 12q6 8 11 16t5 18v486q0 12 -6 27t-14 25q-10 12 -22 20t-26 8h-178v206h140q18 0 33 13t25 31q8 14 12 30t6 30 q0 14 -5 32t-13 32q-8 16 -21 26t-27 10h-170q-10 0 -20 -4t-18 -10t-13 -15t-5 -17v-1182h-486v852h-142z" />
<glyph unicode="&#xe0;" d="M64 358v60t4 64t11 63t19 57q14 28 35 51t51 37q24 12 54 18t66 6h496q14 0 28 8t26 22q8 8 13 20t5 22q0 12 -6 24t-16 20q-10 10 -22 16t-24 6h-660v206h920q40 0 74 -7t62 -21q32 -14 55 -36t39 -48q16 -24 27 -51t17 -55q10 -38 13 -76t3 -72v-688h-428l-30 112 q-2 -12 -7 -21t-9 -17q-6 -12 -14 -21t-16 -17q-22 -18 -46 -28q-26 -8 -54 -8h-446q-36 0 -65 6t-53 18q-26 12 -45 31t-33 43q-16 26 -25 59t-13 65q-4 34 -5 68t-1 64zM382 1440h342l328 -328h-318zM550 276q0 -10 5 -21t11 -21q10 -10 24 -18t26 -8h192q10 0 22 7t22 17 q8 8 13 19t5 21v238h-236q-16 0 -31 -8t-27 -20q-10 -12 -18 -27t-8 -29v-150z" />
<glyph unicode="&#xe1;" d="M64 358v60t4 64t11 63t19 57q14 28 35 51t51 37q24 12 54 18t66 6h496q14 0 28 8t26 22q8 8 13 20t5 22q0 12 -6 24t-16 20q-10 10 -22 16t-24 6h-660v206h920q40 0 74 -7t62 -21q32 -14 55 -36t39 -48q16 -24 27 -51t17 -55q10 -38 13 -76t3 -72v-688h-428l-30 112 q-2 -12 -7 -21t-9 -17q-6 -12 -14 -21t-16 -17q-22 -18 -46 -28q-26 -8 -54 -8h-446q-36 0 -65 6t-53 18q-26 12 -45 31t-33 43q-16 26 -25 59t-13 65q-4 34 -5 68t-1 64zM382 1112l330 328h340l-350 -328h-320zM550 276q0 -10 5 -21t11 -21q10 -10 24 -18t26 -8h192 q10 0 22 7t22 17q8 8 13 19t5 21v238h-236q-16 0 -31 -8t-27 -20q-10 -12 -18 -27t-8 -29v-150z" />
<glyph unicode="&#xe2;" d="M64 358v60t4 64t11 63t19 57q14 28 35 51t51 37q24 12 54 18t66 6h496q14 0 28 8t26 22q8 8 13 20t5 22q0 12 -6 24t-16 20q-10 10 -22 16t-24 6h-660v206h920q40 0 74 -7t62 -21q32 -14 55 -36t39 -48q16 -24 27 -51t17 -55q10 -38 13 -76t3 -72v-688h-428l-30 112 q-2 -12 -7 -21t-9 -17q-6 -12 -14 -21t-16 -17q-22 -18 -46 -28q-26 -8 -54 -8h-446q-36 0 -65 6t-53 18q-26 12 -45 31t-33 43q-16 26 -25 59t-13 65q-4 34 -5 68t-1 64zM258 1112l242 324h352l242 -324h-316l-102 164l-118 -164h-300zM550 276q0 -10 5 -21t11 -21 q10 -10 24 -18t26 -8h192q10 0 22 7t22 17q8 8 13 19t5 21v238h-236q-16 0 -31 -8t-27 -20q-10 -12 -18 -27t-8 -29v-150z" />
<glyph unicode="&#xe3;" d="M64 358v60t4 64t11 63t19 57q14 28 35 51t51 37q24 12 54 18t66 6h496q14 0 28 8t26 22q8 8 13 20t5 22q0 12 -6 24t-16 20q-10 10 -22 16t-24 6h-660v206h920q40 0 74 -7t62 -21q32 -14 55 -36t39 -48q16 -24 27 -51t17 -55q10 -38 13 -76t3 -72v-688h-428l-30 112 q-2 -12 -7 -21t-9 -17q-6 -12 -14 -21t-16 -17q-22 -18 -46 -28q-26 -8 -54 -8h-446q-36 0 -65 6t-53 18q-26 12 -45 31t-33 43q-16 26 -25 59t-13 65q-4 34 -5 68t-1 64zM286 1110q2 24 7 50t13 53t20 53t28 49t36 44t43 35t49 23t56 9q42 0 85 -13t84 -28t79 -29t68 -16 q28 -2 47 22t29 64h164q-4 -28 -8 -55t-9 -53t-14 -50t-21 -46t-30 -39t-42 -30t-54 -20t-68 -7q-20 0 -42 3t-44 8t-44 12t-43 15t-41 15t-37 13t-32 10t-27 6q-16 2 -30 -7t-25 -24t-18 -33t-11 -34h-168zM550 276q0 -10 5 -21t11 -21q10 -10 24 -18t26 -8h192q10 0 22 7 t22 17q8 8 13 19t5 21v238h-236q-16 0 -31 -8t-27 -20q-10 -12 -18 -27t-8 -29v-150z" />
<glyph unicode="&#xe4;" d="M64 358v60t4 64t11 63t19 57q14 28 35 51t51 37q24 12 54 18t66 6h496q14 0 28 8t26 22q8 8 13 20t5 22q0 12 -6 24t-16 20q-10 10 -22 16t-24 6h-660v206h920q40 0 74 -7t62 -21q32 -14 55 -36t39 -48q16 -24 27 -51t17 -55q10 -38 13 -76t3 -72v-688h-428l-30 112 q-2 -12 -7 -21t-9 -17q-6 -12 -14 -21t-16 -17q-22 -18 -46 -28q-26 -8 -54 -8h-446q-36 0 -65 6t-53 18q-26 12 -45 31t-33 43q-16 26 -25 59t-13 65q-4 34 -5 68t-1 64zM254 1110v292h354v-292h-354zM550 276q0 -10 5 -21t11 -21q10 -10 24 -18t26 -8h192q10 0 22 7t22 17 q8 8 13 19t5 21v238h-236q-16 0 -31 -8t-27 -20q-10 -12 -18 -27t-8 -29v-150zM726 1110v292h350v-292h-350z" />
<glyph unicode="&#xe5;" d="M64 358v60t4 64t11 63t19 57q14 28 35 51t51 37q24 12 54 18t66 6h496q14 0 28 8t26 22q8 8 13 20t5 22q0 12 -6 24t-16 20q-10 10 -22 16t-24 6h-660v206h920q40 0 74 -7t62 -21q32 -14 55 -36t39 -48q16 -24 27 -51t17 -55q10 -38 13 -76t3 -72v-688h-428l-30 112 q-2 -12 -7 -21t-9 -17q-6 -12 -14 -21t-16 -17q-22 -18 -46 -28q-26 -8 -54 -8h-446q-36 0 -65 6t-53 18q-26 12 -45 31t-33 43q-16 26 -25 59t-13 65q-4 34 -5 68t-1 64zM488 1294q0 36 15 69t39 58t57 39t71 14t71 -14t58 -39t39 -58t14 -69q0 -38 -14 -71t-39 -58 t-58 -39t-71 -14t-71 14t-57 39t-39 58t-15 71zM550 276q0 -10 5 -21t11 -21q10 -10 24 -18t26 -8h192q10 0 22 7t22 17q8 8 13 19t5 21v238h-236q-16 0 -31 -8t-27 -20q-10 -12 -18 -27t-8 -29v-150zM584 1294q0 -18 7 -34t19 -27t27 -18t33 -7t33 7t27 18t19 27t7 34 q0 16 -7 32t-19 27t-27 18t-33 7t-33 -7t-27 -18t-19 -27t-7 -32z" />
<glyph unicode="&#xe6;" horiz-adv-x="2086" d="M66 264v174q0 32 3 60t9 52q10 32 23 56t31 42q30 32 74 46q22 6 47 9t51 3h424q12 0 25 8t25 20q10 10 16 25t8 29q0 10 -5 20t-13 18q-10 10 -24 16t-24 6h-594v208h1624q10 0 26 -1t33 -4t33 -9t26 -14t20 -17t19 -18t18 -20t15 -23q10 -20 16 -42t10 -48q6 -34 6 -72 v-374h-730v-114q0 -16 8 -33t20 -29q12 -14 26 -22t30 -8h602v-206h-900q-30 0 -57 5t-51 19q-10 6 -22 15t-24 20t-22 23t-18 26q-12 -22 -19 -39t-17 -31q-6 -10 -14 -17t-20 -12t-29 -8t-41 -3h-408q-26 0 -53 5t-53 17q-20 8 -38 21t-32 31q-16 16 -28 39t-20 51 q-6 22 -9 47t-3 53zM524 278q0 -14 6 -26t16 -22q12 -10 24 -16t24 -6h142q14 0 26 4t22 14q8 12 13 31t5 49v196h-212q-10 0 -21 -5t-19 -13q-12 -10 -19 -24t-7 -28v-154zM1262 618h304v166q0 10 -4 21t-12 21q-6 10 -15 16t-19 6h-206q-10 0 -18 -6t-14 -14 q-8 -10 -12 -21t-4 -21v-168z" />
<glyph unicode="&#xe7;" horiz-adv-x="1182" d="M64 304v438q0 28 5 59t15 59q10 30 25 58t35 52q18 20 40 37t50 29q20 8 45 12t51 4h796v-206h-484q-16 0 -32 -8t-28 -20q-14 -12 -22 -27t-8 -29v-476q0 -14 9 -29t21 -25q14 -12 30 -18t32 -6h482v-208h-400l-74 -124h122q18 0 35 -7t33 -19q16 -16 27 -35t11 -37 v-206q0 -16 -8 -35t-20 -35q-12 -14 -28 -24t-34 -10h-324v78h194q4 0 9 2t9 6t7 8t3 8v198q0 6 -3 11t-7 9q-6 4 -12 6t-12 2h-190v80h46l78 124h-242q-42 0 -76 8t-62 22q-26 16 -49 36t-39 46q-14 20 -25 44t-17 48t-10 50t-4 50z" />
<glyph unicode="&#xe8;" horiz-adv-x="1430" d="M66 288v474q0 24 2 46t4 42q6 34 16 63t24 51q16 26 37 44t47 28q24 10 52 15t56 5h810q34 0 68 -6t66 -22q24 -12 44 -32t36 -46q10 -20 18 -42t12 -48q4 -34 4 -72v-374h-814v-114q0 -16 8 -33t22 -29q14 -14 30 -22t32 -8h674v-206h-1006q-32 0 -63 5t-57 19 q-24 10 -44 28t-36 44q-12 18 -20 43t-14 55q-4 20 -6 43t-2 49zM292 1440h340l330 -328h-318zM550 618h342v166q0 10 -5 21t-13 21t-18 16t-20 6h-232q-10 0 -19 -6t-17 -14q-8 -10 -13 -21t-5 -21v-168z" />
<glyph unicode="&#xe9;" horiz-adv-x="1430" d="M66 288v474q0 24 2 46t4 42q6 34 16 63t24 51q16 26 37 44t47 28q24 10 52 15t56 5h810q34 0 68 -6t66 -22q24 -12 44 -32t36 -46q10 -20 18 -42t12 -48q4 -34 4 -72v-374h-814v-114q0 -16 8 -33t22 -29q14 -14 30 -22t32 -8h674v-206h-1006q-32 0 -63 5t-57 19 q-24 10 -44 28t-36 44q-12 18 -20 43t-14 55q-4 20 -6 43t-2 49zM292 1112l330 328h340l-352 -328h-318zM550 618h342v166q0 10 -5 21t-13 21t-18 16t-20 6h-232q-10 0 -19 -6t-17 -14q-8 -10 -13 -21t-5 -21v-168z" />
<glyph unicode="&#xea;" horiz-adv-x="1430" d="M66 288v474q0 24 2 46t4 42q6 34 16 63t24 51q16 26 37 44t47 28q24 10 52 15t56 5h810q34 0 68 -6t66 -22q24 -12 44 -32t36 -46q10 -20 18 -42t12 -48q4 -34 4 -72v-374h-814v-114q0 -16 8 -33t22 -29q14 -14 30 -22t32 -8h674v-206h-1006q-32 0 -63 5t-57 19 q-24 10 -44 28t-36 44q-12 18 -20 43t-14 55q-4 20 -6 43t-2 49zM258 1112l242 324h352l242 -324h-316l-102 164l-118 -164h-300zM550 618h342v166q0 10 -5 21t-13 21t-18 16t-20 6h-232q-10 0 -19 -6t-17 -14q-8 -10 -13 -21t-5 -21v-168z" />
<glyph unicode="&#xeb;" horiz-adv-x="1430" d="M66 288v474q0 24 2 46t4 42q6 34 16 63t24 51q16 26 37 44t47 28q24 10 52 15t56 5h810q34 0 68 -6t66 -22q24 -12 44 -32t36 -46q10 -20 18 -42t12 -48q4 -34 4 -72v-374h-814v-114q0 -16 8 -33t22 -29q14 -14 30 -22t32 -8h674v-206h-1006q-32 0 -63 5t-57 19 q-24 10 -44 28t-36 44q-12 18 -20 43t-14 55q-4 20 -6 43t-2 49zM266 1110v292h352v-292h-352zM550 618h342v166q0 10 -5 21t-13 21t-18 16t-20 6h-232q-10 0 -19 -6t-17 -14q-8 -10 -13 -21t-5 -21v-168zM738 1110v292h350v-292h-350z" />
<glyph unicode="&#xec;" horiz-adv-x="706" d="M4 1440h340l330 -328h-318zM118 0v1058h482v-1058h-482z" />
<glyph unicode="&#xed;" horiz-adv-x="706" d="M4 1112l330 328h340l-352 -328h-318zM118 0v1058h482v-1058h-482z" />
<glyph unicode="&#xee;" horiz-adv-x="816" d="M-58 1112l242 324h350l244 -324h-316l-102 164l-120 -164h-298zM118 0v1058h482v-1058h-482z" />
<glyph unicode="&#xef;" horiz-adv-x="808" d="M-48 1110v292h350v-292h-350zM118 0v1058h482v-1058h-482zM420 1110v292h350v-292h-350z" />
<glyph unicode="&#xf0;" horiz-adv-x="1434" d="M68 286v262q0 36 5 68t15 60q10 26 24 49t30 41q20 20 43 36t49 26q34 14 55 18t32 5t15 -1t6 -2h268h268v162q0 12 -5 22t-13 18t-19 15t-23 13l-222 -136l-186 130l174 100l-254 104l266 164l266 -114l164 120l198 -118l-164 -92l238 -102q16 -6 28 -20t22 -32 q8 -16 13 -35t5 -37v-1010h-1024q-42 0 -65 3t-35 8t-16 9t-8 6q-26 12 -48 30t-38 38t-28 44t-20 48q-8 26 -12 51t-4 49zM550 270q0 -10 5 -22t15 -20q8 -10 19 -16t23 -6h212q10 0 20 7t18 15q8 10 13 22t5 22v304q0 10 -5 22t-13 20q-8 10 -18 16t-20 6h-216 q-10 0 -21 -6t-19 -16t-13 -23t-5 -25v-300z" />
<glyph unicode="&#xf1;" horiz-adv-x="1464" d="M86 0v1052h1022q76 0 136 -34q54 -28 90 -82q14 -20 26 -47t20 -57t12 -64t4 -72v-696h-484v784q0 16 -5 27t-13 19q-10 10 -23 14t-25 4h-210q-10 0 -22 -4t-20 -12q-8 -6 -14 -18t-6 -28v-786h-488zM270 1110q0 24 5 50t14 53t21 53t28 49t35 44t42 35t50 23t57 9 q40 0 83 -13t84 -28t79 -29t68 -16t48 22t28 64h164q-2 -28 -6 -55t-10 -53t-14 -50t-21 -46t-30 -39t-41 -30t-55 -20t-69 -7q-20 0 -41 3t-43 8t-44 12t-43 15t-41 15t-38 13t-33 10t-25 6q-16 2 -30 -7t-25 -24t-19 -33t-12 -34h-166z" />
<glyph unicode="&#xf2;" horiz-adv-x="1446" d="M62 264v508q0 28 2 52t6 46q8 34 20 62t28 46q18 22 39 36t43 22q24 8 49 12t49 4h836q28 0 55 -4t51 -12t43 -21t37 -33q16 -20 29 -47t21 -63q4 -22 6 -47t2 -55v-498q0 -32 -3 -59t-9 -51q-8 -28 -20 -52t-28 -40q-14 -18 -33 -31t-39 -21q-26 -10 -55 -14t-57 -4 h-822q-32 0 -63 6t-59 20q-22 12 -42 28t-36 36q-14 20 -25 44t-17 54q-4 16 -6 35t-2 41zM382 1440h342l328 -328h-318zM546 272q0 -12 6 -23t14 -19q8 -10 19 -16t21 -6h230q10 0 21 6t19 14q10 8 15 19t5 21v520q0 10 -5 20t-13 18t-18 13t-18 5h-264q-6 0 -13 -6 t-11 -14t-6 -17t-2 -17v-518z" />
<glyph unicode="&#xf3;" horiz-adv-x="1446" d="M62 264v508q0 28 2 52t6 46q8 34 20 62t28 46q18 22 39 36t43 22q24 8 49 12t49 4h836q28 0 55 -4t51 -12t43 -21t37 -33q16 -20 29 -47t21 -63q4 -22 6 -47t2 -55v-498q0 -32 -3 -59t-9 -51q-8 -28 -20 -52t-28 -40q-14 -18 -33 -31t-39 -21q-26 -10 -55 -14t-57 -4 h-822q-32 0 -63 6t-59 20q-22 12 -42 28t-36 36q-14 20 -25 44t-17 54q-4 16 -6 35t-2 41zM382 1112l330 328h340l-350 -328h-320zM546 272q0 -12 6 -23t14 -19q8 -10 19 -16t21 -6h230q10 0 21 6t19 14q10 8 15 19t5 21v520q0 10 -5 20t-13 18t-18 13t-18 5h-264 q-6 0 -13 -6t-11 -14t-6 -17t-2 -17v-518z" />
<glyph unicode="&#xf4;" horiz-adv-x="1446" d="M62 264v508q0 28 2 52t6 46q8 34 20 62t28 46q18 22 39 36t43 22q24 8 49 12t49 4h836q28 0 55 -4t51 -12t43 -21t37 -33q16 -20 29 -47t21 -63q4 -22 6 -47t2 -55v-498q0 -32 -3 -59t-9 -51q-8 -28 -20 -52t-28 -40q-14 -18 -33 -31t-39 -21q-26 -10 -55 -14t-57 -4 h-822q-32 0 -63 6t-59 20q-22 12 -42 28t-36 36q-14 20 -25 44t-17 54q-4 16 -6 35t-2 41zM308 1112l244 324h350l244 -324h-318l-102 164l-118 -164h-300zM546 272q0 -12 6 -23t14 -19q8 -10 19 -16t21 -6h230q10 0 21 6t19 14q10 8 15 19t5 21v520q0 10 -5 20t-13 18 t-18 13t-18 5h-264q-6 0 -13 -6t-11 -14t-6 -17t-2 -17v-518z" />
<glyph unicode="&#xf5;" horiz-adv-x="1446" d="M62 264v508q0 28 2 52t6 46q8 34 20 62t28 46q18 22 39 36t43 22q24 8 49 12t49 4h836q28 0 55 -4t51 -12t43 -21t37 -33q16 -20 29 -47t21 -63q4 -22 6 -47t2 -55v-498q0 -32 -3 -59t-9 -51q-8 -28 -20 -52t-28 -40q-14 -18 -33 -31t-39 -21q-26 -10 -55 -14t-57 -4 h-822q-32 0 -63 6t-59 20q-22 12 -42 28t-36 36q-14 20 -25 44t-17 54q-4 16 -6 35t-2 41zM320 1110q2 24 7 50t13 53t20 53t28 49t36 44t43 35t49 23t56 9q42 0 85 -13t84 -28t79 -29t68 -16q28 -2 47 22t29 64h164q-4 -28 -8 -55t-9 -53t-14 -50t-21 -46t-30 -39t-42 -30 t-54 -20t-68 -7q-20 0 -42 3t-44 8t-44 12t-43 15t-41 15t-37 13t-32 10t-27 6q-16 2 -30 -7t-25 -24t-18 -33t-11 -34h-168zM546 272q0 -12 6 -23t14 -19q8 -10 19 -16t21 -6h230q10 0 21 6t19 14q10 8 15 19t5 21v520q0 10 -5 20t-13 18t-18 13t-18 5h-264q-6 0 -13 -6 t-11 -14t-6 -17t-2 -17v-518z" />
<glyph unicode="&#xf6;" horiz-adv-x="1446" d="M62 264v508q0 28 2 52t6 46q8 34 20 62t28 46q18 22 39 36t43 22q24 8 49 12t49 4h836q28 0 55 -4t51 -12t43 -21t37 -33q16 -20 29 -47t21 -63q4 -22 6 -47t2 -55v-498q0 -32 -3 -59t-9 -51q-8 -28 -20 -52t-28 -40q-14 -18 -33 -31t-39 -21q-26 -10 -55 -14t-57 -4 h-822q-32 0 -63 6t-59 20q-22 12 -42 28t-36 36q-14 20 -25 44t-17 54q-4 16 -6 35t-2 41zM288 1110v292h354v-292h-354zM546 272q0 -12 6 -23t14 -19q8 -10 19 -16t21 -6h230q10 0 21 6t19 14q10 8 15 19t5 21v520q0 10 -5 20t-13 18t-18 13t-18 5h-264q-6 0 -13 -6 t-11 -14t-6 -17t-2 -17v-518zM760 1110v292h350v-292h-350z" />
<glyph unicode="&#xf7;" horiz-adv-x="1194" d="M82 428v210h267h261h261h267v-210h-528h-528zM430 0v278h360v-278h-360zM430 782v278h360v-278h-360z" />
<glyph unicode="&#xf8;" horiz-adv-x="1482" d="M40 -236l188 246l-20 8t-18 8q-22 10 -42 27t-36 37q-14 20 -25 44t-17 54q-4 16 -6 35t-2 41v508q0 28 2 52t6 46q8 34 20 62t28 46q18 22 39 36t43 22q24 8 49 12t49 4h726l166 224h222l-184 -238q2 0 6 -1t6 -1q24 -8 43 -21t37 -33q16 -20 29 -47t21 -63q4 -22 6 -47 t2 -55v-498q0 -32 -3 -59t-9 -51q-8 -28 -20 -52t-28 -40q-14 -18 -33 -31t-39 -21q-26 -10 -55 -14t-57 -4h-688l-176 -236h-230zM546 434l314 404q-8 6 -18 6h-264q-6 0 -13 -6t-11 -14t-6 -17t-2 -17v-356zM592 198q10 -4 20 -4h262q8 0 14 5t10 13t6 17t2 17v356z" />
<glyph unicode="&#xf9;" horiz-adv-x="1464" d="M90 318v738h480v-792q0 -10 6 -21t14 -19q10 -8 21 -13t21 -5h218q10 0 21 4t19 12t14 17t6 19v796h486v-1054h-1022q-34 0 -64 7t-56 19q-26 14 -48 33t-40 41t-33 49t-25 55q-8 28 -13 57t-5 57zM406 1440h340l328 -328h-318z" />
<glyph unicode="&#xfa;" horiz-adv-x="1464" d="M90 318v738h480v-792q0 -10 6 -21t14 -19q10 -8 21 -13t21 -5h218q10 0 21 4t19 12t14 17t6 19v796h486v-1054h-1022q-34 0 -64 7t-56 19q-26 14 -48 33t-40 41t-33 49t-25 55q-8 28 -13 57t-5 57zM406 1112l328 328h340l-350 -328h-318z" />
<glyph unicode="&#xfb;" horiz-adv-x="1464" d="M90 318v738h480v-792q0 -10 6 -21t14 -19q10 -8 21 -13t21 -5h218q10 0 21 4t19 12t14 17t6 19v796h486v-1054h-1022q-34 0 -64 7t-56 19q-26 14 -48 33t-40 41t-33 49t-25 55q-8 28 -13 57t-5 57zM320 1112l242 324h352l242 -324h-316l-102 164l-118 -164h-300z" />
<glyph unicode="&#xfc;" horiz-adv-x="1464" d="M90 318v738h480v-792q0 -10 6 -21t14 -19q10 -8 21 -13t21 -5h218q10 0 21 4t19 12t14 17t6 19v796h486v-1054h-1022q-34 0 -64 7t-56 19q-26 14 -48 33t-40 41t-33 49t-25 55q-8 28 -13 57t-5 57zM334 1110v292h352v-292h-352zM806 1110v292h350v-292h-350z" />
<glyph unicode="&#xfd;" horiz-adv-x="1442" d="M90 326v730h484v-784q0 -10 4 -21t12 -19q8 -12 20 -18t22 -6h218q10 0 18 5t14 15q6 8 9 19t3 19v784h480v-1196q0 -20 -4 -42t-10 -44q-8 -22 -19 -42t-25 -38t-32 -33t-40 -27q-22 -10 -47 -16t-55 -6h-992v204h672q16 0 30 5t24 13q8 8 13 18t5 22v132h-522 q-36 0 -68 8t-60 24t-51 38t-43 50q-14 20 -25 44t-19 50t-12 54t-4 58zM428 1112l330 328h340l-352 -328h-318z" />
<glyph unicode="&#xfe;" horiz-adv-x="1450" d="M82 -390v1826h480v-376h532q26 0 52 -7t52 -19q24 -12 48 -30t44 -40q20 -20 37 -44t31 -50q12 -26 18 -52t6 -52v-478q0 -26 -7 -55t-21 -57q-10 -20 -24 -41t-28 -39q-18 -22 -40 -39t-44 -31q-22 -12 -47 -19t-49 -7h-560v-390h-480zM564 270q0 -14 5 -25t15 -19 q8 -8 19 -13t25 -5h206q12 0 24 5t20 13t13 19t5 25v514q0 12 -5 23t-13 21q-8 8 -20 13t-24 5h-206q-14 0 -25 -5t-19 -13q-10 -8 -15 -20t-5 -24v-514z" />
<glyph unicode="&#xff;" horiz-adv-x="1442" d="M90 326v730h484v-784q0 -10 4 -21t12 -19q8 -12 20 -18t22 -6h218q10 0 18 5t14 15q6 8 9 19t3 19v784h480v-1196q0 -20 -4 -42t-10 -44q-8 -22 -19 -42t-25 -38t-32 -33t-40 -27q-22 -10 -47 -16t-55 -6h-992v204h672q16 0 30 5t24 13q8 8 13 18t5 22v132h-522 q-36 0 -68 8t-60 24t-51 38t-43 50q-14 20 -25 44t-19 50t-12 54t-4 58zM334 1110v292h352v-292h-352zM806 1110v292h350v-292h-350z" />
<glyph unicode="&#x152;" horiz-adv-x="2116" d="M92 338v748q0 44 8 81t22 69q14 34 33 61t43 49q20 20 43 35t49 27q32 14 66 21t68 7h1572v-240h-532v-334h514v-234h-514v-388h552v-240h-1584q-30 0 -63 6t-65 18q-26 10 -52 25t-50 35t-44 47t-36 59q-14 30 -22 68t-8 80zM590 320q0 -14 7 -29t17 -27t23 -20t25 -8 h302v962h-312q-12 0 -23 -8t-19 -20q-10 -12 -15 -26t-5 -28v-796z" />
<glyph unicode="&#x153;" horiz-adv-x="2096" d="M66 260v524q0 30 3 59t11 55q8 24 19 47t27 41q14 16 32 28t40 22q20 8 46 13t54 5h1438q28 0 55 -6t51 -16q24 -12 45 -28t39 -36q18 -22 33 -50t25 -60q8 -26 11 -53t3 -57v-334h-714v-124q0 -12 4 -23t12 -21q12 -16 31 -27t37 -11h584v-208h-1648q-24 0 -46 3t-42 11 q-24 8 -46 22t-40 34q-16 16 -28 37t-20 45t-12 51t-4 57zM538 266q0 -12 5 -23t13 -19t19 -12t23 -4h154q12 0 22 4t20 12q8 8 12 19t4 23v520q0 14 -4 24t-12 18q-10 10 -20 14t-22 4h-154q-12 0 -23 -4t-19 -14q-8 -8 -13 -18t-5 -24v-520zM1280 618h260v166q0 10 -5 22 t-15 22q-8 10 -18 16t-22 6h-142q-10 0 -21 -7t-19 -17t-13 -22t-5 -24v-162z" />
<glyph unicode="&#x178;" horiz-adv-x="1590" d="M-22 1436h590l356 -590l334 590h258l-514 -902v-534h-500v556zM494 1498v290h346v-290h-346zM970 1498v290h346v-290h-346z" />
<glyph unicode="&#x2c6;" horiz-adv-x="816" d="M-58 1192l242 322h350l244 -322h-316l-102 164l-120 -164h-298z" />
<glyph unicode="&#x2dc;" horiz-adv-x="810" d="M-34 1188q0 24 5 51t14 53t20 53t27 50t36 43t43 35t49 23t56 8q42 0 84 -12t84 -27t79 -29t69 -16q28 -2 47 22t29 62h164q-4 -26 -8 -53t-10 -53t-14 -50t-21 -46t-30 -40t-41 -30t-54 -19t-70 -7q-18 0 -40 3t-44 8t-44 12t-43 15t-41 15t-37 13t-32 10t-27 6 q-16 2 -30 -8t-25 -25t-19 -33t-10 -34h-166z" />
<glyph unicode="&#x2000;" horiz-adv-x="922" />
<glyph unicode="&#x2001;" horiz-adv-x="1844" />
<glyph unicode="&#x2002;" horiz-adv-x="922" />
<glyph unicode="&#x2003;" horiz-adv-x="1844" />
<glyph unicode="&#x2004;" horiz-adv-x="614" />
<glyph unicode="&#x2005;" horiz-adv-x="461" />
<glyph unicode="&#x2006;" horiz-adv-x="307" />
<glyph unicode="&#x2007;" horiz-adv-x="307" />
<glyph unicode="&#x2008;" horiz-adv-x="230" />
<glyph unicode="&#x2009;" horiz-adv-x="368" />
<glyph unicode="&#x200a;" horiz-adv-x="102" />
<glyph unicode="&#x2010;" horiz-adv-x="1194" d="M82 428v210h267h261h261h267v-210h-528h-528z" />
<glyph unicode="&#x2011;" horiz-adv-x="1194" d="M82 428v210h267h261h261h267v-210h-528h-528z" />
<glyph unicode="&#x2012;" horiz-adv-x="1194" d="M82 428v210h267h261h261h267v-210h-528h-528z" />
<glyph unicode="&#x2013;" horiz-adv-x="1058" d="M20 428v210h250h244h244h250v-210h-494h-494z" />
<glyph unicode="&#x2014;" horiz-adv-x="2074" d="M20 428v210h494h484h485h493v-210h-978h-978z" />
<glyph unicode="&#x2018;" horiz-adv-x="632" d="M116 780v376l244 308h208l-142 -308h176v-376h-486z" />
<glyph unicode="&#x2019;" horiz-adv-x="632" d="M116 1090v374h486v-374l-244 -310h-206l142 310h-178z" />
<glyph unicode="&#x201c;" horiz-adv-x="1254" d="M116 780v376l244 308h208l-142 -308h176v-376h-486zM710 780v376l244 308h208l-142 -308h176v-376h-486z" />
<glyph unicode="&#x201d;" horiz-adv-x="1254" d="M116 1090v374h486v-374l-244 -310h-206l142 310h-178zM710 1090v374h486v-374l-244 -310h-206l142 310h-178z" />
<glyph unicode="&#x2022;" horiz-adv-x="886" d="M178 718q0 68 27 129t71 105q46 46 107 72t129 26t129 -26t105 -72q46 -44 72 -105t26 -129t-26 -129t-72 -107q-44 -44 -105 -70t-129 -26t-129 26t-107 70q-44 46 -71 107t-27 129z" />
<glyph unicode="&#x2026;" horiz-adv-x="2066" d="M100 0v376h488v-376h-488zM790 0v376h488v-376h-488zM1480 0v376h488v-376h-488z" />
<glyph unicode="&#x202f;" horiz-adv-x="368" />
<glyph unicode="&#x205f;" horiz-adv-x="461" />
<glyph unicode="&#x2122;" horiz-adv-x="2088" d="M48 1294v144h754v-144h-226v-720h-302v720h-226zM904 572v866h390l152 -494l164 494h380v-868h-298v692l-228 -690h-208l-220 682v-682h-132z" />
<glyph unicode="&#xe000;" horiz-adv-x="1060" d="M0 0v1060h1060v-1060h-1060z" />
</font>
</defs>
</svg>
